<?xml version="1.0" encoding="UTF-8"?>
<svg version="1.1" xmlns="http://www.w3.org/2000/svg" width="455" height="549">
<path d="M0 0 C1.80859375 0.08203125 1.80859375 0.08203125 4 1 C5.25313545 3.26422272 6.17601212 5.28208175 7.0625 7.6875 C7.31926514 8.36304932 7.57603027 9.03859863 7.84057617 9.73461914 C15.75104228 31.27550414 14.13821149 54.42687388 14 77 C15.73056641 76.94779297 15.73056641 76.94779297 17.49609375 76.89453125 C38.94906532 76.45648745 64.99670501 77.49087966 85 86 C86.88777437 86.50999279 88.78446546 86.98778423 90.6875 87.4375 C103.88297221 90.67594922 115.89513926 95.49659405 128.1875 101.25 C128.94297119 101.60344482 129.69844238 101.95688965 130.47680664 102.32104492 C135.87491582 104.87491582 135.87491582 104.87491582 137 106 C137.10006686 107.48801778 137.13075351 108.98076174 137.13371277 110.47213745 C137.13797775 111.43892426 137.14224274 112.40571106 137.14663696 113.40179443 C137.14618378 114.47173645 137.14573059 115.54167847 137.14526367 116.64404297 C137.15030159 118.32486465 137.15030159 118.32486465 137.15544128 120.03964233 C137.16499817 123.77383514 137.16689783 127.5079832 137.16796875 131.2421875 C137.17118188 133.84083067 137.174546 136.43947366 137.17805481 139.03811646 C137.18406055 144.50767511 137.18593636 149.97721604 137.18530273 155.44677734 C137.18470684 161.72269997 137.19515598 167.99853526 137.2110464 174.27443588 C137.22585168 180.34256318 137.22928637 186.4106497 137.22869301 192.4787941 C137.22986359 195.04205808 137.23423281 197.60532288 137.24202538 200.16857529 C137.27780782 213.1732252 137.1364419 225.97568695 135.48432922 238.88748169 C134.91013618 243.41332032 134.66222843 247.94535402 134.4375 252.5 C134.3968961 253.29094118 134.35629221 254.08188236 134.31445789 254.89679146 C134.24281868 256.29414052 134.17136538 257.69149913 134.10009766 259.08886719 C133.69529815 266.81757588 132.61044847 274.21818724 131.08862305 281.79931641 C129.94984575 287.70528001 129.53015804 293.48419373 129.30859375 299.5 C129 303 129 303 127.96484375 306.78125 C126.4236289 312.52810589 126.97502268 318.33229723 127.25390625 324.22265625 C127.40133502 330.18051314 126.79485842 335.17799778 123 340 C122.01 340.33 121.02 340.66 120 341 C120 341.66 120 342.32 120 343 C119.34 343.33 118.68 343.66 118 344 C117.48952162 346.14379157 117.48952162 346.14379157 117.1875 348.75 C115.17980152 360.6582574 109.58606045 371.29957007 104.07373047 381.91748047 C103.01081592 383.97902234 101.97454935 386.05231317 100.94140625 388.12890625 C95.57301181 398.76118872 89.165471 408.4775538 82.27758789 418.18505859 C81.16000564 419.77269598 80.07697333 421.38454 79 423 C78.34 423 77.68 423 77 423 C76.77054688 423.54785156 76.54109375 424.09570312 76.3046875 424.66015625 C74.62395795 427.67439878 72.48046682 429.91777956 70.125 432.4375 C67.56758185 435.18195321 65.0957168 437.87584067 62.8046875 440.84765625 C62.20914063 441.55792969 61.61359375 442.26820313 61 443 C60.34 443 59.68 443 59 443 C58.67 443.99 58.34 444.98 58 446 C57.34 446 56.68 446 56 446 C55.731875 446.639375 55.46375 447.27875 55.1875 447.9375 C54 450 54 450 51 451 C50.67 451.99 50.34 452.98 50 454 C47.98828125 455.875 47.98828125 455.875 45.3125 458 C43.83716797 459.17369141 43.83716797 459.17369141 42.33203125 460.37109375 C41.79787598 460.79116699 41.2637207 461.21124023 40.71337891 461.64404297 C38.88330716 463.09234996 37.07210051 464.562327 35.26171875 466.03515625 C34.00823462 467.04479513 32.75433429 468.05391752 31.5 469.0625 C30.90098877 469.55169922 30.30197754 470.04089844 29.68481445 470.54492188 C25.34187022 474 25.34187022 474 22 474 C22 474.66 22 475.32 22 476 C19.98555506 477.51531689 18.00755687 478.85928795 15.875 480.1875 C15.02035156 480.75887695 15.02035156 480.75887695 14.1484375 481.34179688 C11.2718886 483.14290874 9.32541339 484.00246837 5.91015625 483.9765625 C2.56091441 482.85265584 0.34198033 481.3618685 -2.4375 479.1875 C-6.93704902 475.76065007 -6.93704902 475.76065007 -11.75 472.8125 C-15.42199225 470.76465817 -18.67707575 468.57696166 -22 466 C-22 465.34 -22 464.68 -22 464 C-22.57234375 463.731875 -23.1446875 463.46375 -23.734375 463.1875 C-26.07884634 461.95867364 -28.12404938 460.57477824 -30.25 459 C-30.95640625 458.484375 -31.6628125 457.96875 -32.390625 457.4375 C-33.18726563 456.7259375 -33.18726563 456.7259375 -34 456 C-34 455.34 -34 454.68 -34 454 C-34.99 453.67 -35.98 453.34 -37 453 C-37 452.34 -37 451.68 -37 451 C-37.639375 450.731875 -38.27875 450.46375 -38.9375 450.1875 C-41 449 -41 449 -42 446 C-42.5775 445.71125 -43.155 445.4225 -43.75 445.125 C-46.79225245 443.60387378 -48.73842507 441.51286104 -51 439 C-51 438.34 -51 437.68 -51 437 C-51.99 436.67 -52.98 436.34 -54 436 C-54 435.34 -54 434.68 -54 434 C-54.99 433.67 -55.98 433.34 -57 433 C-57 432.34 -57 431.68 -57 431 C-57.66 431 -58.32 431 -59 431 C-60.5078125 429.3203125 -60.5078125 429.3203125 -62.125 427.125 C-62.66382813 426.40570313 -63.20265625 425.68640625 -63.7578125 424.9453125 C-65 423 -65 423 -65 421 C-65.66 421 -66.32 421 -67 421 C-68.67547933 418.90866429 -70.22411065 416.82202156 -71.75 414.625 C-72.19811035 413.98812256 -72.6462207 413.35124512 -73.10791016 412.69506836 C-76.65574257 407.60506195 -79.93477701 402.39514682 -83 397 C-83.61746094 395.92621094 -84.23492187 394.85242188 -84.87109375 393.74609375 C-94.59415026 376.68966152 -102.99431631 359.1692738 -108.29125977 340.19360352 C-109.00273107 337.99154712 -109.91260318 336.0391957 -111 334 C-111.66 334 -112.32 334 -113 334 C-115.263825 328.05745936 -115.09621923 322.62326177 -114.875 316.3046875 C-115.00087546 312.976855 -115.69489477 311.01558406 -117 308 C-117.34375 305.5625 -117.34375 305.5625 -117.5 303 C-117.90233479 297.72729674 -118.63927563 292.56455927 -119.46875 287.34375 C-120.2695209 282.30360374 -121.00680345 277.25649823 -121.69824219 272.20019531 C-121.91732749 270.60278692 -122.13977469 269.00583847 -122.36425781 267.40917969 C-124.08408695 255.07164609 -125.34911446 242.85654031 -125.70922852 230.39868164 C-125.73557373 229.50012451 -125.76191895 228.60156738 -125.7890625 227.67578125 C-125.81540771 226.4988269 -125.81540771 226.4988269 -125.84228516 225.2980957 C-125.94757067 222.98972102 -125.94757067 222.98972102 -126.47720337 220.72814941 C-128.87246551 208.22877085 -128.33551145 194.86218863 -128.640625 182.17578125 C-128.6655175 181.15530386 -128.69041 180.13482647 -128.71605682 179.08342552 C-128.8465035 173.70487881 -128.97234128 168.32624562 -129.09472656 162.94750977 C-129.22215626 157.39438156 -129.36721999 151.84185185 -129.51590347 146.289258 C-129.62720007 142.00791878 -129.72504974 137.72634835 -129.81920624 133.44460106 C-129.86670016 131.39550401 -129.9193935 129.34652068 -129.97736359 127.29769325 C-130.05684031 124.44768129 -130.11721955 121.5978774 -130.17285156 118.74731445 C-130.20076782 117.90112549 -130.22868408 117.05493652 -130.25744629 116.18310547 C-130.34137539 110.40734927 -130.34137539 110.40734927 -128.59818649 108.32727337 C-126.82515866 106.85479651 -125.13030832 105.92512725 -123.04296875 104.94921875 C-122.26719482 104.5833667 -121.4914209 104.21751465 -120.69213867 103.84057617 C-119.86560791 103.46006104 -119.03907715 103.0795459 -118.1875 102.6875 C-117.33454346 102.29087158 -116.48158691 101.89424316 -115.6027832 101.4855957 C-113.07251113 100.31480196 -110.53712788 99.15584824 -108 98 C-106.99259766 97.5359375 -106.99259766 97.5359375 -105.96484375 97.0625 C-98.57933691 93.67551597 -91.23557382 91.02399003 -83.38671875 88.92578125 C-80.29067023 88.07945657 -77.2887034 87.09180439 -74.25 86.0625 C-53.28302544 79.58552251 -30.8943219 76.77033928 -9 77 C-9.01571045 75.78119141 -9.0314209 74.56238281 -9.04760742 73.30664062 C-9.10264518 68.70693796 -9.13661363 64.10726321 -9.16479492 59.50732422 C-9.17971574 57.53103716 -9.20005972 55.55478221 -9.22631836 53.57861328 C-9.47078376 34.68287608 -7.26503929 17.66211775 0 0 Z M2 12 C-3.90679309 26.88621691 -4.43585097 41.73614428 -4.34057617 57.56469727 C-4.33972773 59.56717923 -4.34020926 61.56966213 -4.34190369 63.57214355 C-4.3427566 68.95328061 -4.3252461 74.33421282 -4.30418181 79.71530271 C-4.28529641 85.35933951 -4.28365529 91.00338215 -4.28010559 96.64744568 C-4.27081972 107.31067206 -4.24625323 117.97380504 -4.21605712 128.63699049 C-4.18240484 140.7870799 -4.16599999 152.93717402 -4.15097082 165.08729851 C-4.11970023 190.05825059 -4.06700772 215.02912003 -4 240 C-1.3094472 238.77992056 -1.3094472 238.77992056 1 237 C1.10045342 234.56656953 1.13617201 232.16151351 1.12939453 229.72753906 C1.13114685 228.96442917 1.13289917 228.20131927 1.13470459 227.41508484 C1.13913896 224.86524234 1.13617158 222.31546835 1.1328125 219.765625 C1.13348702 217.97564684 1.13445827 216.18566877 1.13571167 214.39569092 C1.13719229 210.61583599 1.13502952 206.83600455 1.13037109 203.05615234 C1.12478676 198.30159298 1.12795944 193.54709104 1.13383102 188.79253387 C1.15276077 170.512403 1.13262373 152.25328705 0.30545044 133.98858643 C-0.03121674 126.31609923 0.15431092 118.83400612 0.84375 111.1875 C1.12834058 108.12735701 1.12834058 108.12735701 0.515625 105.68798828 C-1.58327972 94.74625488 0.14676443 82.25547667 0.5 71.125 C0.54837239 69.55078724 0.59655052 67.9765685 0.64453125 66.40234375 C0.76079061 62.6014901 0.87964687 58.80072613 1 55 C3.87532944 57.87532944 3.30820281 59.95806566 3.39477539 63.98925781 C3.41298812 64.71344123 3.43120085 65.43762465 3.44996548 66.18375301 C3.50851282 68.606761 3.55308166 71.02982272 3.59765625 73.453125 C3.63609759 75.16426942 3.67537994 76.87539512 3.7154541 78.58650208 C3.82072309 83.1868283 3.91388505 87.78732822 4.0047493 92.38795853 C4.10094331 97.15519497 4.20828229 101.92218073 4.31420898 106.68920898 C4.82601305 129.96477937 5.2676192 153.24193306 5.67602539 176.51953125 C5.89501426 188.93140992 6.1515924 201.34103573 6.5 213.75 C6.51805695 214.43232697 6.53611389 215.11465393 6.55471802 215.81765747 C6.75439155 223.25299356 7.11875141 230.6120567 8 238 C9.65 238.66 11.3 239.32 13 240 C13.05248776 226.85056713 12.95580575 213.71561264 12.62768555 200.57006836 C12.56241724 197.93415763 12.50265405 195.29816052 12.44335938 192.66210938 C12.24262566 184.14682321 11.95596813 175.64600454 11.49609375 167.140625 C10.84598774 155.04609845 10.6603784 142.94582497 10.44775391 130.8371582 C10.2604648 120.39278349 10.00732997 109.97927601 9.33239746 99.55400085 C9.01366546 94.5629648 8.91708195 89.6228994 9 84.625 C10.72924798 47.36039441 10.72924798 47.36039441 2 12 Z M14 87 C14 89.31 14 91.62 14 94 C15.02262939 94.05945801 15.02262939 94.05945801 16.06591797 94.12011719 C46.34566549 95.94912914 75.54302765 100.15271018 104 111 C106.62086254 111.94919511 109.24785993 112.88084535 111.875 113.8125 C114.9375 114.90625 114.9375 114.90625 118 116 C118.76060081 122.07768134 119.14504036 127.98786436 119.12939453 134.10888672 C119.13202301 135.40108627 119.13202301 135.40108627 119.13470459 136.71939087 C119.13907049 139.53951084 119.13620324 142.359567 119.1328125 145.1796875 C119.13348717 147.1582948 119.13445856 149.13690202 119.13571167 151.11550903 C119.13718163 155.25263258 119.13505715 159.38973445 119.13037109 163.52685547 C119.12468175 168.80433318 119.12795227 174.08175993 119.13394356 179.35923576 C119.13757454 183.44296648 119.13639884 187.52668532 119.13381577 191.61041641 C119.13315312 193.55508556 119.13395153 195.49975582 119.13629532 197.44442368 C119.14530126 207.01774029 119.12829745 216.47921267 118 226 C117.46930398 231.60274903 117.02210426 237.19689196 116.78515625 242.8203125 C116.71110262 244.56771534 116.63688101 246.31511107 116.5625 248.0625 C116.52600342 248.92858887 116.48950684 249.79467773 116.4519043 250.68701172 C116.18255208 256.26424957 115.55496648 261.56868354 114.20703125 267.00390625 C113.75247681 269.31942555 113.75247681 269.31942555 116 272 C116.6328125 274.26171875 116.6328125 274.26171875 117.125 276.6875 C117.29257812 277.49574219 117.46015625 278.30398438 117.6328125 279.13671875 C117.75398438 279.75160156 117.87515625 280.36648438 118 281 C118.66 281 119.32 281 120 281 C120.33 281.99 120.66 282.98 121 284 C121.11593506 282.68918457 121.23187012 281.37836914 121.35131836 280.02783203 C121.78499077 275.12625129 122.21941323 270.22473726 122.65405273 265.32324219 C122.84142926 263.20900227 123.0286072 261.09474475 123.21557617 258.98046875 C123.48563215 255.92703583 123.75642182 252.87366869 124.02734375 249.8203125 C124.10967758 248.88760529 124.19201141 247.95489807 124.27684021 246.993927 C124.39685143 245.64365921 124.39685143 245.64365921 124.51928711 244.26611328 C124.63674538 242.9396302 124.63674538 242.9396302 124.75657654 241.58634949 C124.91340235 239.92009126 125.08410531 238.2550517 125.27186584 236.59199524 C126.0757822 229.42684403 126.2206918 222.29570026 126.31640625 215.08984375 C126.33715953 213.73423839 126.35820376 212.37863745 126.3795166 211.02304077 C126.43498434 207.40759806 126.48453224 203.79209809 126.53242874 200.176548 C126.56256294 197.93281339 126.59436909 195.68910833 126.62667847 193.44540405 C127.01093525 166.62967369 127.1239037 139.81847871 127 113 C124.62221933 111.70628521 122.24171893 110.41807563 119.859375 109.1328125 C119.19212402 108.76905518 118.52487305 108.40529785 117.83740234 108.03051758 C112.06884926 104.92736081 106.2730281 102.87155201 100 101 C98.6235443 100.53948462 97.24864636 100.0742975 95.875 99.60546875 C73.81384518 92.17799918 50.89407087 87.9436942 27.625 87.375 C26.29164561 87.33666281 24.9583118 87.29760312 23.625 87.2578125 C20.41679423 87.16482103 17.20857599 87.07897836 14 87 Z M-104.72875977 107.80102539 C-107.54772743 109.28914215 -110.39735726 110.710367 -113.25 112.1328125 C-114.32765625 112.6705127 -115.4053125 113.20821289 -116.515625 113.76220703 C-117.33546875 114.17067871 -118.1553125 114.57915039 -119 115 C-119.13677352 135.49450054 -118.77204531 155.95292769 -118.1875 176.4375 C-118.16601898 177.20380737 -118.14453796 177.97011475 -118.12240601 178.75964355 C-117.50458827 200.76255581 -116.6453173 222.67219797 -114.34814453 244.57470703 C-114.00060232 247.9940739 -113.70761293 251.41385807 -113.43359375 254.83984375 C-113.34851563 255.88333984 -113.2634375 256.92683594 -113.17578125 258.00195312 C-113.02487845 259.86102616 -112.87732324 261.72037653 -112.734375 263.58007812 C-112.37346808 267.73731723 -111.85500792 271.1899215 -110 275 C-107.67904384 271.51856576 -107.50485528 269.11096446 -107 265 C-106.55196697 263.03985547 -106.05344568 261.15926814 -105.4140625 259.25390625 C-104.8766262 256.32842753 -105.35206311 254.05487931 -105.875 251.125 C-107.0377214 243.69606864 -107.40306065 236.32723437 -107.65771484 228.81689453 C-107.68945801 227.92083496 -107.72120117 227.02477539 -107.75390625 226.1015625 C-107.77783447 225.31088379 -107.8017627 224.52020508 -107.82641602 223.70556641 C-107.95939094 221.63295305 -108.19787242 219.56687845 -108.48193359 217.50952148 C-109.24494671 211.61263873 -109.34699364 205.6837868 -109.53515625 199.74609375 C-109.57813339 198.45478043 -109.62111053 197.1634671 -109.66539001 195.83302307 C-109.75605921 193.09212544 -109.84393389 190.35115545 -109.92993164 187.61010742 C-110.01615559 184.8694006 -110.10621051 182.12887094 -110.20043945 179.38842773 C-110.50128699 170.62721345 -110.75089199 161.8660716 -110.94992828 153.1019516 C-111.00156555 150.93428003 -111.06048108 148.7668864 -111.12030029 146.59942627 C-111.21759263 142.97747077 -111.28690603 139.35589612 -111.33675957 135.73298836 C-111.35948127 134.36122809 -111.39078268 132.98958064 -111.43104744 131.61822319 C-111.48483224 129.72395301 -111.50387969 127.82879196 -111.52124023 125.93383789 C-111.54145737 124.85727432 -111.5616745 123.78071075 -111.58250427 122.67152405 C-111 120 -111 120 -108.68226624 118.24632263 C-107.79711838 117.83503616 -106.91197052 117.42374969 -106 117 C-104.865625 116.38125 -103.73125 115.7625 -102.5625 115.125 C-83.82882693 105.98324457 -62.39050731 101.65651582 -42 98 C-40.23076172 97.67708984 -40.23076172 97.67708984 -38.42578125 97.34765625 C-31.75207098 96.22305809 -25.13547708 95.66205682 -18.37792969 95.42895508 C-14.78267936 95.2714033 -12.07317282 94.93930498 -9 93 C-9 91.35 -9 89.7 -9 88 C-39.64159536 86.85094017 -77.2988523 93.10795393 -104.72875977 107.80102539 Z M15 115 C15.33 120.61 15.66 126.22 16 132 C17.65 132.33 19.3 132.66 21 133 C20.835 131.741875 20.67 130.48375 20.5 129.1875 C20.17841759 126.73543415 20 124.48349306 20 122 C20.99 122.33 21.98 122.66 23 123 C21.55922954 119.63820226 19.75249979 117.40843732 17 115 C16.34 115 15.68 115 15 115 Z M-12.5625 121.0625 C-14.70747895 123.95355858 -14.19765772 126.50804693 -14 130 C-13.01 130.495 -13.01 130.495 -12 131 C-11.01 130.34 -10.02 129.68 -9 129 C-9.33 126.03 -9.66 123.06 -10 120 C-11.17710009 119.90628166 -11.17710009 119.90628166 -12.5625 121.0625 Z M27 132 C28 134 28 134 28 134 Z M-10 137 C-10.66 137.66 -11.32 138.32 -12 139 C-11.34 139 -10.68 139 -10 139 C-9.67 139.66 -9.34 140.32 -9 141 C-9.33 139.68 -9.66 138.36 -10 137 Z M17 140 C15.74050951 141.03406673 15.74050951 141.03406673 15.90234375 143.28515625 C15.91394531 144.20167969 15.92554688 145.11820313 15.9375 146.0625 C15.958125 147.691875 15.97875 149.32125 16 151 C19.3 150.67 22.6 150.34 26 150 C26.33 151.65 26.66 153.3 27 155 C27.33 155 27.66 155 28 155 C28 151.04 28 147.08 28 143 C24.37 142.01 20.74 141.02 17 140 Z M16 160 C16 160.66 16 161.32 16 162 C18.475 162.495 18.475 162.495 21 163 C21.66 161.35 22.32 159.7 23 158 C20.3534665 158 18.4191837 158.98139634 16 160 Z M19 163 C19 165.31 19 167.62 19 170 C19.33 170 19.66 170 20 170 C20 167.69 20 165.38 20 163 C19.67 163 19.34 163 19 163 Z M24 170 C23.67 171.98 23.34 173.96 23 176 C23.99 176.495 23.99 176.495 25 177 C25 174.69 25 172.38 25 170 C24.67 170 24.34 170 24 170 Z M-26 174 C-25 178 -25 178 -25 178 Z M18 180 C17.67 182.97 17.34 185.94 17 189 C17.33 188.34 17.66 187.68 18 187 C19.64363134 186.27840576 21.31050386 185.60648579 23 185 C22.34 184.01 21.68 183.02 21 182 C20.34 182 19.68 182 19 182 C18.67 181.34 18.34 180.68 18 180 Z M-49 182 C-48.67 183.32 -48.34 184.64 -48 186 C-47.67 185.34 -47.34 184.68 -47 184 C-47.66 183.34 -48.32 182.68 -49 182 Z M52 183 C53 185 53 185 53 185 Z M51 185 C52 187 52 187 52 187 Z M57.4375 186.3125 C55.67576677 188.0111602 55.67576677 188.0111602 56 191 C57.65 190.34 59.3 189.68 61 189 C60.67 187.68 60.34 186.36 60 185 C58.7875169 184.89280132 58.7875169 184.89280132 57.4375 186.3125 Z M-55 186 C-55.33 186.99 -55.66 187.98 -56 189 C-55.01 189.33 -54.02 189.66 -53 190 C-53.66 188.68 -54.32 187.36 -55 186 Z M-47 186 C-46.67 187.32 -46.34 188.64 -46 190 C-45.67 189.01 -45.34 188.02 -45 187 C-45.66 186.67 -46.32 186.34 -47 186 Z M49 188 C50 190 50 190 50 190 Z M48 190 C49 192 49 192 49 192 Z M-52 191 C-51 193 -51 193 -51 193 Z M-44 191 C-43.67 192.32 -43.34 193.64 -43 195 C-42.67 194.01 -42.34 193.02 -42 192 C-42.66 191.67 -43.32 191.34 -44 191 Z M47 192 C48 194 48 194 48 194 Z M54 192 C53.67 193.32 53.34 194.64 53 196 C53.66 195.67 54.32 195.34 55 195 C54.67 194.01 54.34 193.02 54 192 Z M64 194 C59.71929002 197.77593959 59.71929002 197.77593959 58 203 C57.34 203 56.68 203 56 203 C52.97057399 208.96515842 49.97581682 214.94711958 47.125 221 C46.71507812 221.86625 46.30515625 222.7325 45.8828125 223.625 C44.76772082 226.2025979 44.76772082 226.2025979 45 230 C46.51405322 231.47971769 46.51405322 231.47971769 48.5625 232.6875 C53.41159794 236.04988698 56.60519144 240.22605046 60 245 C61.28970703 244.31164062 61.28970703 244.31164062 62.60546875 243.609375 C72.04835288 238.67059992 81.46466812 234.97175019 92 233 C91.64696314 222.2323758 86.77681921 214.32374982 79.41796875 206.65625 C78 205 78 205 77 202 C77.598125 202.350625 78.19625 202.70125 78.8125 203.0625 C81.10813214 204.33304698 81.10813214 204.33304698 84 203 C77.54796871 198.75813262 71.5162931 195.82310088 64 194 Z M-42 195 C-41.67 196.65 -41.34 198.3 -41 200 C-40.67 199.01 -40.34 198.02 -40 197 C-40.66 196.34 -41.32 195.68 -42 195 Z M-62 195 C-64.24310013 195.89666342 -66.44754321 196.89146683 -68.625 197.9375 C-69.81351563 198.50339844 -71.00203125 199.06929687 -72.2265625 199.65234375 C-73.14179688 200.09707031 -74.05703125 200.54179687 -75 201 C-74.67 201.66 -74.34 202.32 -74 203 C-72.22769249 202.2116391 -70.45720466 201.41918653 -68.6875 200.625 C-67.70136719 200.18414062 -66.71523437 199.74328125 -65.69921875 199.2890625 C-62.87254793 198.01757242 -62.87254793 198.01757242 -60 196 C-60.66 195.67 -61.32 195.34 -62 195 Z M-49 196 C-48 198 -48 198 -48 198 Z M45 196 C46 198 46 198 46 198 Z M52 196 C51.67 197.32 51.34 198.64 51 200 C51.66 198.68 52.32 197.36 53 196 C52.67 196 52.34 196 52 196 Z M31 198 C32 200 32 200 32 200 Z M44 198 C45 200 45 200 45 200 Z M29 200 C29.33 200.66 29.66 201.32 30 202 C30.33 201.34 30.66 200.68 31 200 C30.34 200 29.68 200 29 200 Z M-39 202 C-38 204 -38 204 -38 204 Z M42 202 C43 205 43 205 43 205 Z M-75.8828125 214.28515625 C-79.17743574 219.34228772 -79.46388853 224.15500457 -79 230 C-76.77513198 235.95249777 -71.24468944 238.02687639 -65.9375 240.8125 C-65.01388672 241.31458984 -64.09027344 241.81667969 -63.13867188 242.33398438 C-58.79790591 244.96425095 -58.79790591 244.96425095 -54 246 C-52.51854374 244.31255101 -52.51854374 244.31255101 -51.0625 242.1875 C-49.56247678 240.08132929 -48.16841488 238.16296959 -46.30859375 236.36328125 C-44.7691704 235.07447323 -44.7691704 235.07447323 -45 233 C-44.360625 232.773125 -43.72125 232.54625 -43.0625 232.3125 C-40.81397412 231.15800216 -40.81397412 231.15800216 -40.0625 228.75 C-39.92863475 222.85992904 -44.57761762 217.20694986 -47.5625 212.25 C-47.96146484 211.57839844 -48.36042969 210.90679687 -48.77148438 210.21484375 C-50.35908037 207.5697339 -51.80977625 205.19022375 -54 203 C-62.89047781 201.5182537 -70.63252391 207.50724132 -75.8828125 214.28515625 Z M28 202 C27.01 202.495 27.01 202.495 26 203 C26.33 203.66 26.66 204.32 27 205 C27.66 204.67 28.32 204.34 29 204 C28.67 203.34 28.34 202.68 28 202 Z M-38 204 C-37 207 -37 207 -37 207 Z M41 205 C42 207 42 207 42 207 Z M85 205 C86.67401978 208.95677402 89.13149285 211.84464213 92 215 C92.66 215 93.32 215 94 215 C94.33 216.32 94.66 217.64 95 219 C95.66 219 96.32 219 97 219 C95.63350805 214.99304703 93.82896473 212.3232826 91 209.1875 C90.29875 208.39730469 89.5975 207.60710937 88.875 206.79296875 C87.19146903 204.76962664 87.19146903 204.76962664 85 205 Z M-37 207 C-36.67 208.65 -36.34 210.3 -36 212 C-35.67 211.01 -35.34 210.02 -35 209 C-35.66 208.34 -36.32 207.68 -37 207 Z M19.375 208.5 C18.92125 208.995 18.4675 209.49 18 210 C19.97536745 209.65213292 19.97536745 209.65213292 22 209 C22.33 208.34 22.66 207.68 23 207 C20.87635519 206.77390663 20.87635519 206.77390663 19.375 208.5 Z M-84 208 C-85.58969247 210.01791336 -85.58969247 210.01791336 -87.125 212.5 C-87.66382813 213.3353125 -88.20265625 214.170625 -88.7578125 215.03125 C-89.37269531 216.00578125 -89.37269531 216.00578125 -90 217 C-89.67 217.66 -89.34 218.32 -89 219 C-87.82750647 217.54634731 -86.66216184 216.08692581 -85.5 214.625 C-84.8503125 213.81289063 -84.200625 213.00078125 -83.53125 212.1640625 C-81.80746385 210.16973157 -81.80746385 210.16973157 -82 208 C-82.66 208 -83.32 208 -84 208 Z M40 208 C39.67 209.65 39.34 211.3 39 213 C39.66 212.01 40.32 211.02 41 210 C40.67 209.34 40.34 208.68 40 208 Z M-35 212 C-34 215 -34 215 -34 215 Z M-34 215 C-33.67 216.65 -33.34 218.3 -33 220 C-32.67 219.01 -32.34 218.02 -32 217 C-32.66 216.34 -33.32 215.68 -34 215 Z M37 216 C36.67 217.98 36.34 219.96 36 222 C36.66 221.01 37.32 220.02 38 219 C37.67 218.01 37.34 217.02 37 216 Z M-16 217 C-13.32752366 219.34287418 -13.32752366 219.34287418 -10 220 C-10 219.34 -10 218.68 -10 218 C-12.97 217.505 -12.97 217.505 -16 217 Z M-92 220 C-92.66 221.98 -93.32 223.96 -94 226 C-93.01 225.34 -92.02 224.68 -91 224 C-91.33 222.68 -91.66 221.36 -92 220 Z M-32 221 C-31 224 -31 224 -31 224 Z M-24 222 C-23.39047391 226.83540931 -23.39047391 226.83540931 -22.0625 231.5 C-21.96811818 235.27527285 -24.15661901 236.97825584 -26.65234375 239.64453125 C-27.09707031 240.09183594 -27.54179687 240.53914063 -28 241 C-21.86341162 243.18189809 -16.50668891 243.16065899 -10 243 C-10 238.05 -10 233.1 -10 228 C-13.3 227.01 -16.6 226.02 -20 225 C-20 224.34 -20 223.68 -20 223 C-21.32 222.67 -22.64 222.34 -24 222 Z M23.4375 224 C21.973125 224.66 20.50875 225.32 19 226 C19 231.28 19 236.56 19 242 C22.09375 242.061875 22.09375 242.061875 25.25 242.125 C26.41015625 242.14820313 27.5703125 242.17140625 28.765625 242.1953125 C32.26097027 242.19658764 32.26097027 242.19658764 36 240 C33.03 238.02 30.06 236.04 27 234 C27.66666667 230 28.33333333 226 29 222 C27.04257992 222 25.18736309 223.21132931 23.4375 224 Z M35 223 C36 225 36 225 36 225 Z M-31 224 C-30 226 -30 226 -30 226 Z M34 225 C34 226.65 34 228.3 34 230 C34.33 230 34.66 230 35 230 C35 228.35 35 226.7 35 225 C34.67 225 34.34 225 34 225 Z M-95 226 C-94 228 -94 228 -94 228 Z M100 228 C100.66 231.63 101.32 235.26 102 239 C102.66 239 103.32 239 104 239 C103.85892253 237.54119891 103.71197585 236.08296449 103.5625 234.625 C103.44068359 233.40683594 103.44068359 233.40683594 103.31640625 232.1640625 C103.10909886 229.95727195 103.10909886 229.95727195 102 228 C101.34 228 100.68 228 100 228 Z M-96 230 C-96.33 232.31 -96.66 234.62 -97 237 C-94.64046906 234.64046906 -94.50858587 233.22104383 -94 230 C-94.66 230 -95.32 230 -96 230 Z M-41 238 C-40 240 -40 240 -40 240 Z M-97 241 C-97 241.33 -97 241.66 -97 242 C-93.37 242 -89.74 242 -86 242 C-86 241.67 -86 241.34 -86 241 C-89.63 241 -93.26 241 -97 241 Z M4 243 C4 243.66 4 244.32 4 245 C1.69 245.66 -0.62 246.32 -3 247 C-3 247.33 -3 247.66 -3 248 C1.95 248 6.9 248 12 248 C9.28221897 245.93581421 9.28221897 245.93581421 6.875 245.5 C6.25625 245.335 5.6375 245.17 5 245 C4.67 244.34 4.34 243.68 4 243 Z M51 243 C52 245 52 245 52 245 Z M-34 246 C-36.23600438 248.59376508 -37 249.4833494 -37 253 C-36.34 253 -35.68 253 -35 253 C-34.75894531 253.57492187 -34.51789063 254.14984375 -34.26953125 254.7421875 C-32.75476107 257.43614801 -31.00033578 259.08037543 -28.6875 261.125 C-27.54861328 262.14980469 -27.54861328 262.14980469 -26.38671875 263.1953125 C-23.91284443 265.06590159 -22.0189916 266.26695412 -19 267 C-16.94534607 266.08084545 -16.94534607 266.08084545 -15.1875 264.375 C-11.32973418 261.17121734 -7.54286619 259.10918787 -3 257 C-3 256.67 -3 256.34 -3 256 C-12.57 254.68 -22.14 253.36 -32 252 C-32.33 250.02 -32.66 248.04 -33 246 C-33.33 246 -33.66 246 -34 246 Z M42 247 C42 248.32 42 249.64 42 251 C40.84213989 251.17390259 40.84213989 251.17390259 39.66088867 251.35131836 C36.16933879 251.87729828 32.67841902 252.40734992 29.1875 252.9375 C27.97255859 253.11990234 26.75761719 253.30230469 25.50585938 253.49023438 C24.34248047 253.66748047 23.17910156 253.84472656 21.98046875 254.02734375 C20.90692139 254.18968506 19.83337402 254.35202637 18.72729492 254.51928711 C15.91882528 254.94553006 15.91882528 254.94553006 13 256 C13 256.66 13 257.32 13 258 C13.88751953 258.09474609 13.88751953 258.09474609 14.79296875 258.19140625 C19.1271836 258.86310349 22.21352134 259.51158914 25 263.0625 C27.19510481 266.61187286 27.55919649 269.8603939 27.56640625 273.984375 C27.83510394 276.21237241 27.83510394 276.21237241 30.02734375 277.765625 C30.67832031 278.17296875 31.32929688 278.5803125 32 279 C37.02726436 275.00812756 40.8743863 271.24848915 43.9921875 265.6015625 C45 264 45 264 47 263 C44.82243054 269.40529742 42.46054778 275.19122336 39 281 C39 281.66 39 282.32 39 283 C44.4944445 280.69023352 46.53603396 276.11383253 48.984375 270.90625 C50.66628964 266.78079899 51.45844738 263.51738392 51 259 C49.33029997 255.71704699 49.33029997 255.71704699 47.0625 252.625 C46.33160156 251.56539062 45.60070312 250.50578125 44.84765625 249.4140625 C44.23792969 248.61742187 43.62820313 247.82078125 43 247 C42.67 247 42.34 247 42 247 Z M54 247 C54.33 247.99 54.66 248.98 55 250 C55 249.01 55 248.02 55 247 C54.67 247 54.34 247 54 247 Z M-65 248 C-64.67 248.66 -64.34 249.32 -64 250 C-63.34 249.67 -62.68 249.34 -62 249 C-62.99 248.67 -63.98 248.34 -65 248 Z M-49 248 C-48 250 -48 250 -48 250 Z M76 254 C79.60993172 255.13480527 82.9842327 255.10015767 86.75 255.0625 C87.92046875 255.05347656 89.0909375 255.04445313 90.296875 255.03515625 C91.18890625 255.02355469 92.0809375 255.01195312 93 255 C92.01 254.67 91.02 254.34 90 254 C90 253.34 90 252.68 90 252 C93.3 252 96.6 252 100 252 C100 250.68 100 249.36 100 248 C91.61345847 247.73792058 83.26538451 249.76185904 76 254 Z M-51 251 C-51 254 -51 254 -51 254 Z M56 251 C56.66 251.66 57.32 252.32 58 253 C58 252.34 58 251.68 58 251 C57.34 251 56.68 251 56 251 Z M-84 254 C-84 254.33 -84 254.66 -84 255 C-80.7 255 -77.4 255 -74 255 C-74 254.67 -74 254.34 -74 254 C-77.3 254 -80.6 254 -84 254 Z M76 263 C76.2821629 270.33623541 78.67550128 277.0203281 83 283 C87.02776697 284.52459489 91.477394 284.14969714 95.75 284.125 C96.43449219 284.12886719 97.11898437 284.13273437 97.82421875 284.13671875 C101.19717774 284.42517792 101.19717774 284.42517792 104 283 C103.87419322 277.77417977 103.36140321 272.72280643 101 268 C101.66 267.34 102.32 266.68 103 266 C94.6863311 262.1757123 84.96938447 260.7703225 76 263 Z M-90.3125 269.625 C-92.24734256 273.49468512 -92.59765264 276.55573548 -92.82421875 280.828125 C-93 283 -93 283 -94 285 C-91.64828869 284.40138258 -89.3140622 283.73075648 -87 283 C-86.67 282.34 -86.34 281.68 -86 281 C-87.32 281 -88.64 281 -90 281 C-90 280.01 -90 279.02 -90 278 C-82.46818582 277.24332624 -75.49719609 276.85635992 -68 278 C-65.35527522 271.71724311 -65.35527522 271.71724311 -65 265 C-73.73351535 259.67468576 -83.97082299 262.42633961 -90.3125 269.625 Z M-1 263 C0 266 0 266 0 266 Z M6 263 C6 264.32 6 265.64 6 267 C8.97 267 11.94 267 15 267 C14.34 265.68 13.68 264.36 13 263 C10.69 263 8.38 263 6 263 Z M-14.5 269.8125 C-15.37205078 270.34713867 -15.37205078 270.34713867 -16.26171875 270.89257812 C-20.54936948 273.47204412 -20.54936948 273.47204412 -24 277 C-24.3606631 279.05363606 -24.3606631 279.05363606 -24.1875 281.1875 C-24.125625 282.445625 -24.06375 283.70375 -24 285 C-23.01 285 -22.02 285 -21 285 C-21 285.99 -21 286.98 -21 288 C-16.38 287.67 -11.76 287.34 -7 287 C-7 286.34 -7 285.68 -7 285 C-6.34 285 -5.68 285 -5 285 C-5 278.73 -5 272.46 -5 266 C-8.93800217 266 -11.2802376 267.77426904 -14.5 269.8125 Z M0 266 C1 268 1 268 1 268 Z M105 268 C105.33 268.99 105.66 269.98 106 271 C106 270.01 106 269.02 106 268 C105.67 268 105.34 268 105 268 Z M-1 270 C-1.05422947 271.4370809 -1.09289723 272.87475462 -1.125 274.3125 C-1.14820313 275.11300781 -1.17140625 275.91351563 -1.1953125 276.73828125 C-1.15817322 279.28388576 -1.15817322 279.28388576 1 282 C2.37628299 278.7695146 2.37628299 278.7695146 3 275 C1.27623195 272.05099476 1.27623195 272.05099476 -1 270 Z M107 271 C107.33 271.99 107.66 272.98 108 274 C108 273.01 108 272.02 108 271 C107.67 271 107.34 271 107 271 Z M-101 272 C-100 274 -100 274 -100 274 Z M-31 273 C-34.87488088 277.17294864 -35.40666753 281.58623991 -35.35546875 287.10546875 C-35.1266535 289.30854449 -35.1266535 289.30854449 -32.6875 291.3125 C-31.800625 291.869375 -30.91375 292.42625 -30 293 C-28.9826127 293.98230498 -27.97403883 294.97469597 -27 296 C-27.33 294.35 -27.66 292.7 -28 291 C-28.66 291 -29.32 291 -30 291 C-29.835 290.505 -29.67 290.01 -29.5 289.5 C-28.93004507 286.65022535 -28.98785584 283.93562261 -29.03125 281.0390625 C-28.98923269 278.29743289 -28.53675229 275.68376145 -28 273 C-28.99 273 -29.98 273 -31 273 Z M6 273 C6.33 274.32 6.66 275.64 7 277 C9.64 277 12.28 277 15 277 C15 276.01 15 275.02 15 274 C12.04335481 272.5216774 9.25770263 272.93967217 6 273 Z M-103 282 C-102 285 -102 285 -102 285 Z M1 283 C1 284.65 1 286.3 1 288 C1.66 287.67 2.32 287.34 3 287 C3 285.68 3 284.36 3 283 C2.34 283 1.68 283 1 283 Z M7 283 C7.33 284.32 7.66 285.64 8 287 C11.465 286.505 11.465 286.505 15 286 C14.67 285.01 14.34 284.02 14 283 C11.69 283 9.38 283 7 283 Z M23 283 C22.67 284.2375 22.34 285.475 22 286.75 C21.814375 287.44609375 21.62875 288.1421875 21.4375 288.859375 C20.86650651 291.28901861 20.86650651 291.28901861 21 295 C23.34372446 296.88800026 24.94230335 298 28 298 C31.01675345 296.49162328 32.88153892 294.60268076 35 292 C35.12814774 289.93042231 35.12814774 289.93042231 34 288 C31.46980806 286.41978717 31.46980806 286.41978717 28.4375 285.25 C27.42558594 284.82203125 26.41367188 284.3940625 25.37109375 283.953125 C24.19740234 283.48132813 24.19740234 283.48132813 23 283 Z M105 285 C105 285.99 105 286.98 105 288 C103.68 288.33 102.36 288.66 101 289 C101 289.99 101 290.98 101 292 C102.423125 292.7115625 102.423125 292.7115625 103.875 293.4375 C105.58333333 294.29166667 107.29166667 295.14583333 109 296 C108.01 292.37 107.02 288.74 106 285 C105.67 285 105.34 285 105 285 Z M111 285 C112 287 112 287 112 287 Z M-54 285.875 C-57.61032471 286.76578273 -61.03951082 287.2018338 -64.75 287.4375 C-68.87134108 287.75541551 -71.71721935 288.28321601 -75 291 C-75 291.33 -75 291.66 -75 292 C-69.06 291.505 -69.06 291.505 -63 291 C-63.33 291.66 -63.66 292.32 -64 293 C-65.85359782 293.40423094 -67.70971701 293.79993116 -69.57617188 294.13989258 C-76.39549174 295.28371846 -76.39549174 295.28371846 -81.94921875 299.015625 C-84.04402038 303.5945966 -84.42307318 308.02889014 -84 313 C-76.96614097 311.49011403 -70.55574242 309.58075073 -64.0703125 306.4609375 C-59.62542326 304.34593931 -55.09732369 302.42852701 -50.56933594 300.49902344 C-46.87964662 298.90412548 -43.28825136 297.32813216 -40 295 C-39.5782657 292.11814893 -39.69861151 290.60277697 -41 288 C-41.96421875 288.2165625 -42.9284375 288.433125 -43.921875 288.65625 C-45.18515625 288.9346875 -46.4484375 289.213125 -47.75 289.5 C-49.62945312 289.91765625 -49.62945312 289.91765625 -51.546875 290.34375 C-55 291 -55 291 -59 291 C-55.04 289.35 -51.08 287.7 -47 286 C-50.20189434 284.93270189 -50.89362438 285.0413036 -54 285.875 Z M-104 287 C-103 289 -103 289 -103 289 Z M112 288 C113 290 113 290 113 290 Z M-84 291 C-83 293 -83 293 -83 293 Z M2 293 C3 296 3 296 3 296 Z M7 293 C7 293.66 7 294.32 7 295 C7.99 295 8.98 295 10 295 C10 294.34 10 293.68 10 293 C9.01 293 8.02 293 7 293 Z M-87 295 C-86 297 -86 297 -86 297 Z M103 298 C103.99 299.485 103.99 299.485 105 301 C105.66 301 106.32 301 107 301 C107 300.01 107 299.02 107 298 C105.68 298 104.36 298 103 298 Z M119 300 C119.33 301.98 119.66 303.96 120 306 C120.33 306 120.66 306 121 306 C121 304.02 121 302.04 121 300 C120.34 300 119.68 300 119 300 Z M109 302 C109 303.98 109 305.96 109 308 C107.35 307.67 105.7 307.34 104 307 C104.45375 308.175625 104.9075 309.35125 105.375 310.5625 C106.79328108 314.33338003 107.94713178 318.11248657 109 322 C112.41728336 320.93946379 113.04915225 319.91017003 114.8125 316.6875 C116.24906738 312.2570162 116.24906738 312.2570162 115 308 C113.4595111 305.81417115 111.83283152 303.97029388 110 302 C109.67 302 109.34 302 109 302 Z M69 307 C69 307.66 69 308.32 69 309 C67.8553125 308.690625 67.8553125 308.690625 66.6875 308.375 C63.78114056 307.66608797 63.78114056 307.66608797 61 310 C59.28555111 310.43738696 57.55332216 310.80848688 55.8125 311.125 C54.91144531 311.29257812 54.01039063 311.46015625 53.08203125 311.6328125 C52.39496094 311.75398438 51.70789063 311.87515625 51 312 C51 312.33 51 312.66 51 313 C55.95 313 60.9 313 66 313 C66.33 312.34 66.66 311.68 67 311 C70.32215342 309.60683889 73.7008634 308.42838783 77.09375 307.21875 C80.1087863 306.32566599 80.1087863 306.32566599 81 304 C75.80672773 302.11153736 73.34548799 304.18821366 69 307 Z M102 304 C103 306 103 306 103 306 Z M-100 306 C-101.58651723 309.17303447 -101.41696583 312.54413067 -101 316 C-99.72780266 318.02977977 -99.72780266 318.02977977 -98 319 C-97.67 319 -97.34 319 -97 319 C-97 314.71 -97 310.42 -97 306 C-97.99 306 -98.98 306 -100 306 Z M-4 306 C-4 307.32 -4 308.64 -4 310 C-1.36 310 1.28 310 4 310 C3.34 308.68 2.68 307.36 2 306 C0.02 306 -1.96 306 -4 306 Z M9 306 C10 310 10 310 10 310 Z M94 306 C94 306.66 94 307.32 94 308 C94.66 307.67 95.32 307.34 96 307 C95.34 306.67 94.68 306.34 94 306 Z M-91 307 C-91 309.31 -91 311.62 -91 314 C-90.67 314 -90.34 314 -90 314 C-90 311.69 -90 309.38 -90 307 C-90.33 307 -90.66 307 -91 307 Z M15 307 C13.66666667 310 13.66666667 310 15 313 C15.06806332 315.70977083 14.99796741 318.40358531 14.9375 321.11328125 C15.00349399 324.16137882 15.43425199 327.0077234 16 330 C18.12472576 330.05386629 20.24983652 330.09273071 22.375 330.125 C24.15003906 330.15980469 24.15003906 330.15980469 25.9609375 330.1953125 C29.11153817 330.32866229 29.11153817 330.32866229 31 328 C31 327.01 31 326.02 31 325 C31.99 325 32.98 325 34 325 C33.81516334 319.02019616 33.81516334 319.02019616 31.4375 313.6875 C26.26150224 310.10411693 21.34661526 307.63466153 15 307 Z M96 308 C96.33 308.99 96.66 309.98 97 311 C97 310.01 97 309.02 97 308 C96.67 308 96.34 308 96 308 Z M39 309 C38.01 309.495 38.01 309.495 37 310 C37.57584432 312.38564077 38.22227595 314.66682784 39 317 C39.07029121 319.57265818 39.09370832 322.11641431 39.0625 324.6875 C39.05798828 325.38939453 39.05347656 326.09128906 39.04882812 326.81445312 C39.03706927 328.54300538 39.01913454 330.27151365 39 332 C41.35785318 331.10664203 41.35785318 331.10664203 42.125 327.9375 C42.558125 326.4834375 42.558125 326.4834375 43 325 C43.99 325 44.98 325 46 325 C45.53031881 319.36382567 44.09327687 314.78582459 41 310 C40.34 309.67 39.68 309.34 39 309 Z M79.875 310.4375 C75.22905931 312.05480612 70.89538795 312.61147715 66 313 C66 313.66 66 314.32 66 315 C65.08476562 315.13277344 64.16953125 315.26554687 63.2265625 315.40234375 C62.03804687 315.57894531 60.84953125 315.75554687 59.625 315.9375 C58.44164062 316.11152344 57.25828125 316.28554688 56.0390625 316.46484375 C53.09297619 316.83462786 53.09297619 316.83462786 51 318 C51 321.96 51 325.92 51 330 C55.51674032 329.88053187 60.0333155 329.75622296 64.54980469 329.62768555 C66.0819957 329.58473143 67.61422254 329.54303423 69.14648438 329.50268555 C83.0136233 330.42824171 83.0136233 330.42824171 95 327 C94.95344588 321.47169811 94.02211664 316.70107033 91 312 C87.14114525 308.38232367 84.62586694 308.65805342 79.875 310.4375 Z M-90 315 C-89 318 -89 318 -89 318 Z M9 315 C7.768606 318.69418201 8.35567236 321.2056261 9 325 C9.33 325 9.66 325 10 325 C10 321.7 10 318.4 10 315 C9.67 315 9.34 315 9 315 Z M-4 316 C-4.99 317.485 -4.99 317.485 -6 319 C-4.88741409 320.32745166 -4.88741409 320.32745166 -2.0625 320.25 C-1.051875 320.1675 -0.04125 320.085 1 320 C1.66 319.01 2.32 318.02 3 317 C1.88741409 315.67254834 1.88741409 315.67254834 -0.9375 315.75 C-1.948125 315.8325 -2.95875 315.915 -4 316 Z M-82 317 C-82 317.66 -82 318.32 -82 319 C-80.02 318.67 -78.04 318.34 -76 318 C-76 317.67 -76 317.34 -76 317 C-77.98 317 -79.96 317 -82 317 Z M-56 323 C-56.33 323.66 -56.66 324.32 -57 325 C-56.01 324.67 -55.02 324.34 -54 324 C-54.66 323.67 -55.32 323.34 -56 323 Z M-107 325 C-106.67 326.65 -106.34 328.3 -106 330 C-105.67 329.01 -105.34 328.02 -105 327 C-105.66 326.34 -106.32 325.68 -107 325 Z M102 325 C102 326.65 102 328.3 102 330 C102.33 330 102.66 330 103 330 C103 328.35 103 326.7 103 325 C102.67 325 102.34 325 102 325 Z M-61 326 C-61.33 326.66 -61.66 327.32 -62 328 C-60.68 327.34 -59.36 326.68 -58 326 C-58.99 326 -59.98 326 -61 326 Z M-4 326 C-3.67 326.99 -3.34 327.98 -3 329 C-1.02 329 0.96 329 3 329 C3 328.01 3 327.02 3 326 C0.69 326 -1.62 326 -4 326 Z M-84 328 C-83 330 -83 330 -83 330 Z M-64 328 C-64.33 328.66 -64.66 329.32 -65 330 C-64.01 329.67 -63.02 329.34 -62 329 C-62.66 328.67 -63.32 328.34 -64 328 Z M-105 330 C-104.34 331.32 -103.68 332.64 -103 334 C-102.01 334 -101.02 334 -100 334 C-101.65 332.68 -103.3 331.36 -105 330 Z M9 330 C9 331.65 9 333.3 9 335 C9.33 335 9.66 335 10 335 C10 333.35 10 331.7 10 330 C9.67 330 9.34 330 9 330 Z M45 330 C46 332 46 332 46 332 Z M-81 331 C-80 333 -80 333 -80 333 Z M44 332 C45 334 45 334 45 334 Z M79 343 C79 343.33 79 343.66 79 344 C80.98 344 82.96 344 85 344 C85 343.67 85 343.34 85 343 C83.02 343 81.04 343 79 343 Z M6 358 C6.33 359.32 6.66 360.64 7 362 C7.66 361.67 8.32 361.34 9 361 C8.67 360.01 8.34 359.02 8 358 C7.34 358 6.68 358 6 358 Z M-78 371 C-77 374 -77 374 -77 374 Z M88 378 C84.99854911 381.39497445 82.72256542 385.03578328 80.44775391 388.92700195 C75.95922448 396.59759885 71.09798483 403.80815 65.625 410.8125 C64.75125732 411.93144653 64.75125732 411.93144653 63.85986328 413.07299805 C61.39808079 416.17095957 58.93793105 419.13994633 56.0859375 421.88671875 C53.76583751 423.74233887 53.76583751 423.74233887 54 426 C53.01 426.33 52.02 426.66 51 427 C51 427.66 51 428.32 51 429 C50.34 429 49.68 429 49 429 C49 429.66 49 430.32 49 431 C47.515 431.495 47.515 431.495 46 432 C46 432.66 46 433.32 46 434 C45.46375 434.226875 44.9275 434.45375 44.375 434.6875 C41.17539839 436.45570089 38.70962777 438.53670203 36 441 C36 441.66 36 442.32 36 443 C35.34 443 34.68 443 34 443 C32.3303598 444.66368782 30.66435025 446.33102013 29 448 C26.75295188 449.78260852 24.41570185 451.42361776 22.0625 453.0625 C21.17014648 453.69381836 21.17014648 453.69381836 20.25976562 454.33789062 C19.07994378 455.16956832 17.89461458 455.99349434 16.70361328 456.80908203 C15.07719737 457.94603485 13.50343319 459.15721791 11.93359375 460.37109375 C9 462 9 462 5.9765625 462 C2.49798324 460.83134345 0.24885937 459.28008677 -2.625 457 C-3.65882813 456.19175781 -4.69265625 455.38351562 -5.7578125 454.55078125 C-6.55493652 453.91970459 -6.55493652 453.91970459 -7.36816406 453.27587891 C-10.03683445 451.18933321 -12.7732979 449.19752612 -15.5 447.1875 C-18.26898151 445.14425961 -20.8083254 443.19538661 -23.21875 440.73828125 C-24.82375044 438.7671927 -24.82375044 438.7671927 -27 439 C-27 438.34 -27 437.68 -27 437 C-28.48361694 435.49950064 -28.48361694 435.49950064 -30.4375 433.9375 C-43.86694069 422.44001394 -57.69997596 407.31770079 -65 391 C-65.66 391 -66.32 391 -67 391 C-67.226875 390.278125 -67.45375 389.55625 -67.6875 388.8125 C-69.24831013 385.46790687 -71.3031287 383.48396041 -74 381 C-75.79781938 386.19777712 -73.82699903 391.02198241 -72 396 C-70.02996671 398.92584336 -70.02996671 398.92584336 -68 401 C-67.67 401.99 -67.34 402.98 -67 404 C-66.34 404.33 -65.68 404.66 -65 405 C-64.67 405.99 -64.34 406.98 -64 408 C-63.34 408 -62.68 408 -62 408 C-61.62294922 409.0828125 -61.62294922 409.0828125 -61.23828125 410.1875 C-58.19655107 417.0961616 -52.34991104 422.7908761 -47 428 C-45.99188895 429.18062203 -44.99237843 430.36862341 -44 431.5625 C-41.56804854 434.44227883 -38.99445392 436.69657391 -36 439 C-33.5 441.5 -33.5 441.5 -31 444 C-23.8722269 451.82992499 -23.8722269 451.82992499 -15 456 C-15 456.66 -15 457.32 -15 458 C-13.05385473 459.59348861 -13.05385473 459.59348861 -10.625 461.125 C-9.81289062 461.66382813 -9.00078125 462.20265625 -8.1640625 462.7578125 C-6.12677974 464.1659413 -6.12677974 464.1659413 -4 464 C-4 464.66 -4 465.32 -4 466 C-1.93593572 467.67688482 -1.93593572 467.67688482 0.6875 469.25 C1.55761719 469.81203125 2.42773438 470.3740625 3.32421875 470.953125 C5.91683982 472.25533952 5.91683982 472.25533952 8.4140625 471.45703125 C11.64465064 469.63677539 14.67741964 467.59534922 17.6875 465.4375 C23.81167109 461.09416446 23.81167109 461.09416446 26 460 C26 459.34 26 458.68 26 458 C26.7425 457.731875 27.485 457.46375 28.25 457.1875 C30.89061949 456.04723249 32.85552844 454.90619694 35 453 C35 452.34 35 451.68 35 451 C35.86625 450.5978125 35.86625 450.5978125 36.75 450.1875 C39.05550043 448.97070811 41.02056192 447.69666121 43 446 C43 445.34 43 444.68 43 444 C43.99 443.67 44.98 443.34 46 443 C46 442.34 46 441.68 46 441 C46.56203125 440.7628125 47.1240625 440.525625 47.703125 440.28125 C50.51894042 438.71052303 52.47955416 436.78528536 54.75 434.5 C55.54921875 433.7059375 56.3484375 432.911875 57.171875 432.09375 C59.21923609 430.21216538 59.21923609 430.21216538 59 428 C59.66 428 60.32 428 61 428 C62.47573971 426.42633741 62.47573971 426.42633741 64 424.3125 C64.62003906 423.49007812 65.24007812 422.66765625 65.87890625 421.8203125 C66.57886719 420.88960938 67.27882813 419.95890625 68 419 C69.21932982 417.44163701 70.43871583 415.88331681 71.65991211 414.32641602 C84.83428971 398.01579751 84.83428971 398.01579751 89 378 C88.67 378 88.34 378 88 378 Z " fill="#0D0D0D" transform="translate(223,48)"/>
<path d="M0 0 C6.52556622 0.95164507 9.27536154 3.97271861 13.49609375 8.90625 C15 11 15 11 15 13 C15.66 13 16.32 13 17 13 C17.495 14.485 17.495 14.485 18 16 C18.99 16.598125 19.98 17.19625 21 17.8125 C24 20 24 20 24.875 23.25 C24.91625 24.1575 24.9575 25.065 25 26 C24.34 26 23.68 26 23 26 C23.495 26.7734375 23.495 26.7734375 24 27.5625 C25.32010877 30.78026512 25.13242105 33.5570528 25 37 C25.66 37 26.32 37 27 37 C27.33 36.01 27.66 35.02 28 34 C28 35.65 28 37.3 28 39 C25.54203147 39.19436491 23.08390706 39.3807742 20.625 39.5625 C19.57699219 39.64661133 19.57699219 39.64661133 18.5078125 39.73242188 C13.2265625 40.11328125 13.2265625 40.11328125 11 39 C10.34 39.66 9.68 40.32 9 41 C9 40.34 9 39.68 9 39 C8.34 39 7.68 39 7 39 C6.505 39.99 6.505 39.99 6 41 C3 43 3 43 0.5703125 42.9453125 C-2.61600794 43.01310655 -3.69042712 43.87960497 -6.125 45.875 C-6.78757812 46.40867187 -7.45015625 46.94234375 -8.1328125 47.4921875 C-8.74898438 47.98976563 -9.36515625 48.48734375 -10 49 C-13 51 -13 51 -16 51 C-16.66 50.67 -17.32 50.34 -18 50 C-18 50.66 -18 51.32 -18 52 C-18.99 52 -19.98 52 -21 52 C-20 50 -20 50 -19 49 C-20.32 49 -21.64 49 -23 49 C-22.67 48.01 -22.34 47.02 -22 46 C-22.94875 45.195625 -23.8975 44.39125 -24.875 43.5625 C-25.67550781 42.88380859 -25.67550781 42.88380859 -26.4921875 42.19140625 C-28.00594079 40.9121848 -28.00594079 40.9121848 -30 40 C-29 38 -29 38 -26 36 C-26 35.01 -26 34.02 -26 33 C-22.51127585 34.16290805 -21.90023136 35.13967609 -19.8125 38.0625 C-19.01779297 39.16271484 -19.01779297 39.16271484 -18.20703125 40.28515625 C-17.80871094 40.85105469 -17.41039062 41.41695313 -17 42 C-15.71029297 41.31164062 -15.71029297 41.31164062 -14.39453125 40.609375 C4.86237192 30.53497119 4.86237192 30.53497119 15 31 C13.27983288 20.50698055 8.75098448 12.24775904 1.3203125 4.65625 C0 3 0 3 0 0 Z " fill="#363636" transform="translate(300,250)"/>
<path d="M0 0 C2.6465335 2.6465335 3.59941997 5.56221264 5 9 C5.66 9 6.32 9 7 9 C7 9.99 7 10.98 7 12 C7.66 12.33 8.32 12.66 9 13 C10.3707878 16.56404828 10.13949122 20.2337371 10 24 C9.67 24.66 9.34 25.32 9 26 C9.99 26.33 10.98 26.66 12 27 C12 27.99 12 28.98 12 30 C12.66 30 13.32 30 14 30 C15.70680947 31.62553283 17.37660195 33.29115995 19 35 C18.505 35.99 18.505 35.99 18 37 C17.67 37 17.34 37 17 37 C17.495 39.97 17.495 39.97 18 43 C17.34 43 16.68 43 16 43 C16.185625 43.9075 16.37125 44.815 16.5625 45.75 C17 49 17 49 16.4375 51.125 C15.77529292 53.04618006 15.77529292 53.04618006 16.9375 54.8125 C18.449347 57.92512618 18.18949129 60.58915686 18 64 C17.67 64.66 17.34 65.32 17 66 C17.99 66.495 17.99 66.495 19 67 C18.505 68.485 18.505 68.485 18 70 C17.01 69.67 16.02 69.34 15 69 C14.505 70.485 14.505 70.485 14 72 C11.10441559 73.4477922 9.25811062 74 6 74 C6.33 73.34 6.66 72.68 7 72 C9.97 71.505 9.97 71.505 13 71 C13.99 66.38 14.98 61.76 16 57 C14.02 57.495 14.02 57.495 12 58 C11.01 57.34 10.02 56.68 9 56 C9.515625 54.948125 10.03125 53.89625 10.5625 52.8125 C11.9807865 49.45588861 12.38222874 47.50164613 11 44 C9.03490091 41.2299003 9.03490091 41.2299003 7 39 C6.67 40.65 6.34 42.3 6 44 C4.02 43.34 2.04 42.68 0 42 C0.33 40.02 0.66 38.04 1 36 C2.485 36.495 2.485 36.495 4 37 C4 36.01 4 35.02 4 34 C2.68 33.67 1.36 33.34 0 33 C1.32 33 2.64 33 4 33 C5.40096246 29.92757947 5.40096246 29.92757947 3.5625 26.8125 C2.7890625 25.4203125 2.7890625 25.4203125 2 24 C0.68 24.33 -0.64 24.66 -2 25 C-2 25.66 -2 26.32 -2 27 C-5.3 26.34 -8.6 25.68 -12 25 C-12 25.66 -12 26.32 -12 27 C-13.98 27.33 -15.96 27.66 -18 28 C-18 26 -18 26 -16 24 C-16 23.34 -16 22.68 -16 22 C-17.32 21.67 -18.64 21.34 -20 21 C-19.67 20.34 -19.34 19.68 -19 19 C-12.73 19 -6.46 19 0 19 C-0.48978766 13.04091686 -1.14729701 7.6816225 -3 2 C-2.01 1.34 -1.02 0.68 0 0 Z M8 21 C9 23 9 23 9 23 Z " fill="#272626" transform="translate(326,312)"/>
<path d="M0 0 C0.99 0.33 1.98 0.66 3 1 C3 3.97 3 6.94 3 10 C3.71027344 9.84402344 4.42054688 9.68804687 5.15234375 9.52734375 C6.07144531 9.33269531 6.99054688 9.13804687 7.9375 8.9375 C8.85402344 8.74027344 9.77054688 8.54304687 10.71484375 8.33984375 C11.46894531 8.22769531 12.22304687 8.11554688 13 8 C13.33 8.33 13.66 8.66 14 9 C14.33 6.69 14.66 4.38 15 2 C15.33 2 15.66 2 16 2 C16 6.29 16 10.58 16 15 C15.01 15 14.02 15 13 15 C12.87625 15.598125 12.7525 16.19625 12.625 16.8125 C12 19 12 19 10 22 C9.34 22 8.68 22 8 22 C8.66 20.35 9.32 18.7 10 17 C9.401875 17.33 8.80375 17.66 8.1875 18 C6 19 6 19 3 19 C3 19.66 3 20.32 3 21 C3.99 20.67 4.98 20.34 6 20 C7.4783226 22.95664519 7.06032783 25.74229737 7 29 C8.32 29 9.64 29 11 29 C11 30.98 11 32.96 11 35 C11.495 32.03 11.495 32.03 12 29 C12.66 29.33 13.32 29.66 14 30 C14.33 28.35 14.66 26.7 15 25 C15.66 25.33 16.32 25.66 17 26 C16.979375 27.0725 16.95875 28.145 16.9375 29.25 C16.84356237 32.79575381 16.84356237 32.79575381 17.625 35.3125 C17.74875 35.869375 17.8725 36.42625 18 37 C17.34 37.66 16.68 38.32 16 39 C15.01 39 14.02 39 13 39 C13 38.34 13 37.68 13 37 C11.02 37.495 11.02 37.495 9 38 C9.33 38.66 9.66 39.32 10 40 C9.34 40.66 8.68 41.32 8 42 C7.34 41.67 6.68 41.34 6 41 C5.87625 42.299375 5.7525 43.59875 5.625 44.9375 C5.4140625 47.15234375 5.4140625 47.15234375 5 49 C4.01 49.495 4.01 49.495 3 50 C2.01 49.67 1.02 49.34 0 49 C0 58.57 0 68.14 0 78 C-0.33 78 -0.66 78 -1 78 C-1.02505615 76.89003662 -1.0501123 75.78007324 -1.07592773 74.63647461 C-1.17277538 70.36311192 -1.27184632 66.0898025 -1.37121582 61.8164978 C-1.43741356 58.94125423 -1.50144287 56.06596734 -1.56542969 53.19067383 C-1.76847678 44.28462282 -1.99937652 35.38417602 -2.39453125 26.484375 C-2.454594 25.05737664 -2.514574 23.6303748 -2.57446289 22.20336914 C-2.68536768 19.57854367 -2.8166318 16.9573444 -2.95874023 14.33374023 C-3.00844971 13.16528564 -3.05815918 11.99683105 -3.109375 10.79296875 C-3.16061523 9.7877417 -3.21185547 8.78251465 -3.26464844 7.74682617 C-2.95102259 4.49165602 -1.85480275 2.65574031 0 0 Z " fill="#2B2B2B" transform="translate(236,189)"/>
<path d="M0 0 C0.99 0.99 1.98 1.98 3 3 C3.99 2.01 4.98 1.02 6 0 C6.12117188 0.56589844 6.24234375 1.13179688 6.3671875 1.71484375 C6.61855469 2.81505859 6.61855469 2.81505859 6.875 3.9375 C7.11863281 5.03384766 7.11863281 5.03384766 7.3671875 6.15234375 C7.82961523 8.20700294 7.82961523 8.20700294 10 9 C10 10.65 10 12.3 10 14 C10.66 14 11.32 14 12 14 C12 16.31 12 18.62 12 21 C11.01 21 10.02 21 9 21 C6.92637213 22.99793014 6.92637213 22.99793014 5.0625 25.4375 C0.70588235 30.85026738 0.70588235 30.85026738 -2.0625 31.4375 C-4.17416708 31.82493792 -4.17416708 31.82493792 -5.25 33.875 C-6.16641006 36.09591691 -6.16641006 36.09591691 -6 39 C-6.8971875 39.1546875 -6.8971875 39.1546875 -7.8125 39.3125 C-10.29861534 40.09385053 -11.22943442 41.14895416 -13 43 C-13.66 43 -14.32 43 -15 43 C-15 42.34 -15 41.68 -15 41 C-15.969375 40.71125 -16.93875 40.4225 -17.9375 40.125 C-21 39 -21 39 -22 37 C-24.34907875 36.31068656 -24.34907875 36.31068656 -27.0625 35.875 C-27.98160156 35.70742188 -28.90070313 35.53984375 -29.84765625 35.3671875 C-30.91306641 35.18542969 -30.91306641 35.18542969 -32 35 C-32.495 33.515 -32.495 33.515 -33 32 C-32.01 32.33 -31.02 32.66 -30 33 C-26.75150023 31.27773504 -26.75150023 31.27773504 -26 28 C-21.1725201 29.41292095 -17.2837641 31.42974154 -13 34 C-12.814375 33.34 -12.62875 32.68 -12.4375 32 C-9.92707131 26.76084447 -5.79362011 22.6142581 -1.5 18.75 C0.23532059 17.13766436 0.23532059 17.13766436 -0.125 15.0625 C-0.41375 14.381875 -0.7025 13.70125 -1 13 C-3 8.17647059 -3 8.17647059 -3 5 C-2.34 5.33 -1.68 5.66 -1 6 C-0.67 4.02 -0.34 2.04 0 0 Z M0 26 C1 28 1 28 1 28 Z M-8 36 C-7 38 -7 38 -7 38 Z " fill="#2F2F2F" transform="translate(182,260)"/>
<path d="M0 0 C3.98475867 5.97713801 3.36555776 11.78607339 3.5625 18.8125 C3.58367889 19.51631805 3.60485779 20.22013611 3.62667847 20.94528198 C4.23685765 41.62408984 4.09100099 62.31477453 4 83 C3.01 83.495 3.01 83.495 2 84 C1.53272148 85.83528863 1.53272148 85.83528863 1.3671875 88.03515625 C1.28339844 88.84404297 1.19960937 89.65292969 1.11328125 90.48632812 C1.03464844 91.33646484 0.95601562 92.18660156 0.875 93.0625 C0.78863281 93.91650391 0.70226562 94.77050781 0.61328125 95.65039062 C0.40052772 97.76610633 0.19920047 99.88296524 0 102 C-0.33 102 -0.66 102 -1 102 C-2.33726507 72.28603078 -2.33726507 72.28603078 -1.15625 59.1875 C-0.87157908 56.12745003 -0.87157908 56.12745003 -1.48461914 53.6887207 C-3.4358951 43.50899445 -1.930481 31.9459843 -1.62768555 21.58227539 C-1.56147935 19.27696057 -1.50237535 16.97152447 -1.44335938 14.66601562 C-1.40147156 13.1900919 -1.35916985 11.71417986 -1.31640625 10.23828125 C-1.29969376 9.55397537 -1.28298126 8.86966949 -1.26576233 8.16462708 C-1.17241495 5.19134461 -0.9479909 2.84397269 0 0 Z " fill="#6D6D6D" transform="translate(224,100)"/>
<path d="M0 0 C2.6465335 2.6465335 3.59941997 5.56221264 5 9 C5.66 9 6.32 9 7 9 C7 9.99 7 10.98 7 12 C7.66 12.33 8.32 12.66 9 13 C10.37097852 16.56454416 10.07243154 20.23355995 10 24 C9.34 24.33 8.68 24.66 8 25 C7.67 22.69 7.34 20.38 7 18 C6.01 18.33 5.02 18.66 4 19 C3.690625 19.825 3.38125 20.65 3.0625 21.5 C2.5365625 22.7375 2.5365625 22.7375 2 24 C-0.125 24.8125 -0.125 24.8125 -2 25 C-2 25.66 -2 26.32 -2 27 C-5.3 26.34 -8.6 25.68 -12 25 C-12 25.66 -12 26.32 -12 27 C-13.98 27.33 -15.96 27.66 -18 28 C-18 26 -18 26 -16 24 C-16 23.34 -16 22.68 -16 22 C-17.32 21.67 -18.64 21.34 -20 21 C-19.67 20.34 -19.34 19.68 -19 19 C-12.73 19 -6.46 19 0 19 C-0.48978766 13.04091686 -1.14729701 7.6816225 -3 2 C-2.01 1.34 -1.02 0.68 0 0 Z " fill="#3F3D3D" transform="translate(326,312)"/>
<path d="M0 0 C2 1 2 1 2.78125 2.6796875 C5.62454669 11.36410455 7.34557419 19.84228384 7 29 C6.67 29 6.34 29 6 29 C6 26.69 6 24.38 6 22 C5.34 22 4.68 22 4 22 C3.67 35.86 3.34 49.72 3 64 C2.67 64 2.34 64 2 64 C1.98541748 63.03400879 1.97083496 62.06801758 1.95581055 61.07275391 C2.6337944 30.76972423 2.6337944 30.76972423 -5 2 C-2.625 0.9375 -2.625 0.9375 0 0 Z " fill="#262626" transform="translate(229,57)"/>
<path d="M0 0 C0.99 0.33 1.98 0.66 3 1 C3.90124158 6.41602841 4.17436606 11.65869524 4.203125 17.14453125 C4.20882507 17.99552902 4.21452515 18.84652679 4.22039795 19.72331238 C4.22979026 21.50913264 4.23635878 23.29496979 4.24023438 25.08081055 C4.25003307 27.82174999 4.28114616 30.56196752 4.3125 33.30273438 C4.31902217 35.04166224 4.32427571 36.78059542 4.328125 38.51953125 C4.3404718 39.34032669 4.3528186 40.16112213 4.36553955 41.00679016 C4.35644531 43.30395508 4.35644531 43.30395508 4 47 C3.01 47.66 2.02 48.32 1 49 C-0.3226348 43.99778603 -0.12593478 39.01854038 -0.09765625 33.88671875 C-0.0962413 32.91716751 -0.09482635 31.94761627 -0.09336853 30.94868469 C-0.08778513 27.86159133 -0.07523564 24.77457133 -0.0625 21.6875 C-0.05748286 19.59049584 -0.05292032 17.49349054 -0.04882812 15.39648438 C-0.03782112 10.26429479 -0.02056788 5.13215982 0 0 Z " fill="#040404" transform="translate(232,78)"/>
<path d="M0 0 C0.66 0 1.32 0 2 0 C2 2.64 2 5.28 2 8 C2.639375 7.814375 3.27875 7.62875 3.9375 7.4375 C4.618125 7.293125 5.29875 7.14875 6 7 C7 8 7 8 7.09765625 10.28515625 C7.08605469 11.20167969 7.07445312 12.11820312 7.0625 13.0625 C7.05347656 13.98160156 7.04445312 14.90070313 7.03515625 15.84765625 C7.02355469 16.55792969 7.01195312 17.26820313 7 18 C6.01 18.33 5.02 18.66 4 19 C4 18.34 4 17.68 4 17 C3.01 16.67 2.02 16.34 1 16 C0.3125 13.9375 0.3125 13.9375 0 12 C-0.99 12 -1.98 12 -3 12 C-5.33564933 11.68330179 -7.6693782 11.35179197 -10 11 C-8.68 10.67 -7.36 10.34 -6 10 C-6.33 8.68 -6.66 7.36 -7 6 C-9.31 6 -11.62 6 -14 6 C-13.67 4.68 -13.34 3.36 -13 2 C-13 2.99 -13 3.98 -13 5 C-9.535 4.505 -9.535 4.505 -6 4 C-6.33 3.34 -6.66 2.68 -7 2 C-10.02934491 1.34227572 -10.02934491 1.34227572 -13 1 C-13 0.67 -13 0.34 -13 0 C-8.37780684 -1.29999183 -4.67738428 -0.69010588 0 0 Z M0 1 C1 5 1 5 1 5 Z " fill="#2C2C30" transform="translate(232,353)"/>
<path d="M0 0 C0.66 0 1.32 0 2 0 C2 14.85 2 29.7 2 45 C1.01 44.34 0.02 43.68 -1 43 C-2.51699593 35.32237936 -2.08569206 27.00515489 -2.125 19.1875 C-2.12975342 18.41220947 -2.13450684 17.63691895 -2.1394043 16.83813477 C-2.09706744 2.09706744 -2.09706744 2.09706744 0 0 Z " fill="#030303" transform="translate(226,183)"/>
<path d="M0 0 C2.31583215 3.47374822 3.12186934 5.09704466 3.20532227 9.17431641 C3.22526749 10.03505768 3.24521271 10.89579895 3.26576233 11.78262329 C3.28247482 12.71287323 3.29918732 13.64312317 3.31640625 14.6015625 C3.33718735 15.55316254 3.35796844 16.50476257 3.37937927 17.48519897 C3.44488133 20.53172432 3.5037628 23.57833743 3.5625 26.625 C3.60568459 28.68750916 3.64929886 30.75000937 3.69335938 32.8125 C3.8005634 37.87490954 3.90182902 42.93740755 4 48 C3.01 46.68 2.02 45.36 1 44 C0.67 45.98 0.34 47.96 0 50 C-0.33 50 -0.66 50 -1 50 C-0.67 33.5 -0.34 17 0 0 Z " fill="#272727" transform="translate(224,100)"/>
<path d="M0 0 C2 2 2 2 2.125 5.625 C2.08375 6.73875 2.0425 7.8525 2 9 C3.32 9 4.64 9 6 9 C6 10.98 6 12.96 6 15 C6.33 13.02 6.66 11.04 7 9 C7.66 9.33 8.32 9.66 9 10 C9.33 8.35 9.66 6.7 10 5 C10.66 5.33 11.32 5.66 12 6 C11.979375 7.0725 11.95875 8.145 11.9375 9.25 C11.84356237 12.79575381 11.84356237 12.79575381 12.625 15.3125 C12.74875 15.869375 12.8725 16.42625 13 17 C12.34 17.66 11.68 18.32 11 19 C10.01 19 9.02 19 8 19 C8 18.34 8 17.68 8 17 C6.68 17.33 5.36 17.66 4 18 C4.33 18.66 4.66 19.32 5 20 C4.34 20.66 3.68 21.32 3 22 C2.34 21.67 1.68 21.34 1 21 C0.34 21.99 -0.32 22.98 -1 24 C-0.99476318 23.40985107 -0.98952637 22.81970215 -0.98413086 22.21166992 C-0.96333953 19.53695745 -0.95033299 16.86226199 -0.9375 14.1875 C-0.92912109 13.25873047 -0.92074219 12.32996094 -0.91210938 11.37304688 C-0.90888672 10.48037109 -0.90566406 9.58769531 -0.90234375 8.66796875 C-0.89710693 7.84578857 -0.89187012 7.0236084 -0.88647461 6.17651367 C-0.91258476 3.81827404 -0.91258476 3.81827404 -2 1 C-1.34 0.67 -0.68 0.34 0 0 Z " fill="#545454" transform="translate(241,209)"/>
<path d="M0 0 C0.99 0 1.98 0 3 0 C3 1.32 3 2.64 3 4 C4.65 3.67 6.3 3.34 8 3 C7.835 3.515625 7.67 4.03125 7.5 4.5625 C6.84951 7.73363876 6.9379266 10.77218334 7 14 C7.66 13.67 8.32 13.34 9 13 C9 17.62 9 22.24 9 27 C8.67 26.01 8.34 25.02 8 24 C6.02 23.34 4.04 22.68 2 22 C2 15.07 2 8.14 2 1 C1.34 0.67 0.68 0.34 0 0 Z " fill="#464646" transform="translate(216,313)"/>
<path d="M0 0 C3.87302138 1.14430177 7.00263439 2.23320098 10 5 C10 5.66 10 6.32 10 7 C11.32 7.33 12.64 7.66 14 8 C13.34 9.32 12.68 10.64 12 12 C9.6875 12.1875 9.6875 12.1875 7 12 C6.5565625 11.525625 6.113125 11.05125 5.65625 10.5625 C3.47782658 8.50738357 1.73925413 8.30662732 -1.1875 7.8125 C-2.08855469 7.65394531 -2.98960937 7.49539063 -3.91796875 7.33203125 C-4.60503906 7.22246094 -5.29210937 7.11289062 -6 7 C-6.33 6.01 -6.66 5.02 -7 4 C-6.01 4.33 -5.02 4.66 -4 5 C-0.75150023 3.27773504 -0.75150023 3.27773504 0 0 Z " fill="#101010" transform="translate(156,288)"/>
<path d="M0 0 C-0.309375 0.763125 -0.61875 1.52625 -0.9375 2.3125 C-1.67893593 4.18789677 -2.36228217 6.08684652 -3 8 C-4.6396875 8.185625 -4.6396875 8.185625 -6.3125 8.375 C-10.07381802 8.75464801 -10.07381802 8.75464801 -13 11 C-14.32 10.34 -15.64 9.68 -17 9 C-17 8.34 -17 7.68 -17 7 C-15 5.375 -15 5.375 -13 4 C-13.33 3.34 -13.66 2.68 -14 2 C-9.07262981 0.02905192 -5.21979128 -0.1799928 0 0 Z " fill="#242425" transform="translate(308,284)"/>
<path d="M0 0 C4.20934535 6.31401802 4.27967756 14.58854456 4 22 C3.67 22 3.34 22 3 22 C3 19.69 3 17.38 3 15 C2.34 15 1.68 15 1 15 C0.67 28.86 0.34 42.72 0 57 C-0.33 57 -0.66 57 -1 57 C-1.02505615 56.00258789 -1.0501123 55.00517578 -1.07592773 53.97753906 C-1.17124366 50.22011948 -1.27114282 46.46283249 -1.37231445 42.70556641 C-1.41520031 41.09003841 -1.45689992 39.47447842 -1.49731445 37.85888672 C-1.73127384 28.54094847 -2.06895876 19.28071043 -3 10 C-2.01 10.495 -2.01 10.495 -1 11 C-1 11.66 -1 12.32 -1 13 C-0.34 13 0.32 13 1 13 C0.67 8.71 0.34 4.42 0 0 Z " fill="#6D6D6D" transform="translate(232,64)"/>
<path d="M0 0 C0.66 0 1.32 0 2 0 C2 2.64 2 5.28 2 8 C2.9590625 7.7215625 2.9590625 7.7215625 3.9375 7.4375 C4.618125 7.293125 5.29875 7.14875 6 7 C7 8 7 8 7.09765625 10.28515625 C7.08605469 11.20167969 7.07445312 12.11820312 7.0625 13.0625 C7.05347656 13.98160156 7.04445312 14.90070313 7.03515625 15.84765625 C7.02355469 16.55792969 7.01195312 17.26820313 7 18 C6.01 18.33 5.02 18.66 4 19 C4 18.34 4 17.68 4 17 C3.01 16.67 2.02 16.34 1 16 C0.83044205 14.27111445 0.66448486 12.54187557 0.5 10.8125 C0.4071875 9.84957031 0.314375 8.88664062 0.21875 7.89453125 C0.01875156 5.24812333 -0.03879183 2.65239135 0 0 Z " fill="#595959" transform="translate(232,353)"/>
<path d="M0 0 C0.33 0 0.66 0 1 0 C3.71937238 13.03841938 3.37575615 25.8074812 2 39 C1.67 39 1.34 39 1 39 C-0.3006515 26.01671093 -0.09977584 13.03225916 0 0 Z " fill="#5D5D5D" transform="translate(95,227)"/>
<path d="M0 0 C0.66 0.33 1.32 0.66 2 1 C1.01 2.485 1.01 2.485 0 4 C-0.3260368 6.11808281 -0.3260368 6.11808281 -0.31884766 8.47143555 C-0.33871735 9.37214279 -0.35858704 10.27285004 -0.37905884 11.20085144 C-0.39061005 12.16968765 -0.40216125 13.13852386 -0.4140625 14.13671875 C-0.43342865 15.13129593 -0.4527948 16.12587311 -0.4727478 17.15058899 C-0.53256159 20.3294719 -0.57893639 23.50839098 -0.625 26.6875 C-0.6631781 28.84181273 -0.70222973 30.99611017 -0.7421875 33.15039062 C-0.83826451 38.43345809 -0.92330674 43.71661753 -1 49 C-1.33 49 -1.66 49 -2 49 C-2.21882733 42.50437119 -2.41378655 36.00834267 -2.59204102 29.51147461 C-2.65553084 27.30069719 -2.72451567 25.09007055 -2.79907227 22.87963867 C-2.90519719 19.70515005 -2.99164919 16.53064641 -3.07421875 13.35546875 C-3.11157639 12.36475876 -3.14893402 11.37404877 -3.18742371 10.35331726 C-3.20767105 9.43258926 -3.2279184 8.51186127 -3.2487793 7.56323242 C-3.27320602 6.7527092 -3.29763275 5.94218597 -3.32279968 5.10710144 C-2.92309982 2.49802776 -2.0072669 1.64264315 0 0 Z " fill="#909090" transform="translate(96,155)"/>
<path d="M0 0 C0.66 0.33 1.32 0.66 2 1 C1.979375 2.0725 1.95875 3.145 1.9375 4.25 C1.84356237 7.79575381 1.84356237 7.79575381 2.625 10.3125 C2.74875 10.869375 2.8725 11.42625 3 12 C2.34 12.66 1.68 13.32 1 14 C0.01 14 -0.98 14 -2 14 C-3.60725635 10.78548731 -3.05748185 7.56387464 -3 4 C-2.01 4.495 -2.01 4.495 -1 5 C-0.67 3.35 -0.34 1.7 0 0 Z " fill="#616161" transform="translate(251,214)"/>
<path d="M0 0 C2 2 2 2 2.1875 5.5 C2 9 2 9 1 11 C1.66 11.33 2.32 11.66 3 12 C2.67 12.99 2.34 13.98 2 15 C1.01 14.67 0.02 14.34 -1 14 C-1.33 14.99 -1.66 15.98 -2 17 C-4.89558441 18.4477922 -6.74188938 19 -10 19 C-9.67 18.34 -9.34 17.68 -9 17 C-5.9375 16.375 -5.9375 16.375 -3 16 C-1.29915181 10.67067568 -0.47986031 5.56890517 0 0 Z " fill="#5D5D6C" transform="translate(342,367)"/>
<path d="M0 0 C5.61 0.33 11.22 0.66 17 1 C17 1.66 17 2.32 17 3 C8.57142857 5.28571429 8.57142857 5.28571429 4 5 C3.67 4.01 3.34 3.02 3 2 C2.01 2 1.02 2 0 2 C0 1.34 0 0.68 0 0 Z " fill="#3D3D3D" transform="translate(272,360)"/>
<path d="M0 0 C0.66 0.33 1.32 0.66 2 1 C2 4.96 2 8.92 2 13 C0.02 12.34 -1.96 11.68 -4 11 C-3.67 9.02 -3.34 7.04 -3 5 C-2.01 5.33 -1.02 5.66 0 6 C0 5.01 0 4.02 0 3 C-1.32 2.67 -2.64 2.34 -4 2 C-2.68 2 -1.36 2 0 2 C0 1.34 0 0.68 0 0 Z " fill="#3D3434" transform="translate(330,343)"/>
<path d="M0 0 C0 1.65 0 3.3 0 5 C0.99 4.01 1.98 3.02 3 2 C3.66 2.33 4.32 2.66 5 3 C3.68 6.63 2.36 10.26 1 14 C0.34 14 -0.32 14 -1 14 C-0.67 11.69 -0.34 9.38 0 7 C-1.65 7.66 -3.3 8.32 -5 9 C-5 6.69 -5 4.38 -5 2 C-1.125 0 -1.125 0 0 0 Z M-3 3 C-3.33 4.65 -3.66 6.3 -4 8 C-3.34 7.01 -2.68 6.02 -2 5 C-2.33 4.34 -2.66 3.68 -3 3 Z " fill="#636363" transform="translate(266,253)"/>
<path d="M0 0 C-1.375 1.5 -1.375 1.5 -3 3 C-3.66 3 -4.32 3 -5 3 C-5 3.66 -5 4.32 -5 5 C-4.01 5.33 -3.02 5.66 -2 6 C-2 6.66 -2 7.32 -2 8 C-3.65 8.66 -5.3 9.32 -7 10 C-6.67 9.01 -6.34 8.02 -6 7 C-8.78114056 4.66608797 -8.78114056 4.66608797 -11.6875 5.375 C-12.450625 5.58125 -13.21375 5.7875 -14 6 C-12.61326942 3.22653883 -10.86966354 2.70074287 -8.125 1.3125 C-7.24070312 0.85488281 -6.35640625 0.39726562 -5.4453125 -0.07421875 C-3 -1 -3 -1 0 0 Z " fill="#4A4A4A" transform="translate(296,288)"/>
<path d="M0 0 C2.02045442 0.60183749 4.02111039 1.27306096 6 2 C6.33 2.66 6.66 3.32 7 4 C5.35 3.67 3.7 3.34 2 3 C2.66 4.65 3.32 6.3 4 8 C0.01178789 9.32940404 -2.11730245 8.43803613 -6 7 C-6.33 6.01 -6.66 5.02 -7 4 C-6.01 4.33 -5.02 4.66 -4 5 C-0.75150023 3.27773504 -0.75150023 3.27773504 0 0 Z " fill="#5C5C5C" transform="translate(156,288)"/>
<path d="M0 0 C0 0.66 0 1.32 0 2 C1.32 2.33 2.64 2.66 4 3 C2.10614563 3.50744423 0.20981334 4.00564574 -1.6875 4.5 C-2.74324219 4.7784375 -3.79898438 5.056875 -4.88671875 5.34375 C-7.71142672 5.9391715 -10.12836708 6.12786492 -13 6 C-11.59719304 3.19438607 -9.9490995 2.99319493 -7.0625 1.875 C-6.16660156 1.52179688 -5.27070313 1.16859375 -4.34765625 0.8046875 C-2 0 -2 0 0 0 Z " fill="#444444" transform="translate(176,334)"/>
<path d="M0 0 C1.32 0 2.64 0 4 0 C4.49230769 7.38461538 4.49230769 7.38461538 2 10.5 C1.34 10.995 0.68 11.49 0 12 C-0.66 9.36 -1.32 6.72 -2 4 C-1.34 4 -0.68 4 0 4 C0 2.68 0 1.36 0 0 Z " fill="#020202" transform="translate(234,370)"/>
<path d="M0 0 C0.66 0 1.32 0 2 0 C1.71758359 1.46015291 1.42373386 2.91809793 1.125 4.375 C0.96257812 5.18710937 0.80015625 5.99921875 0.6328125 6.8359375 C0 9 0 9 -2 11 C-2.33 10.34 -2.66 9.68 -3 9 C-4.32 10.32 -5.64 11.64 -7 13 C-7.66 12.67 -8.32 12.34 -9 12 C-8.60167969 11.55269531 -8.20335937 11.10539062 -7.79296875 10.64453125 C-5.35411675 7.86151035 -3.14996141 5.25172094 -1.25 2.0625 C-0.8375 1.381875 -0.425 0.70125 0 0 Z " fill="#676767" transform="translate(268,311)"/>
<path d="M0 0 C0.33 0.99 0.66 1.98 1 3 C-0.375 4.5 -0.375 4.5 -2 6 C-2.66 6 -3.32 6 -4 6 C-4.33 6.99 -4.66 7.98 -5 9 C-4.67 9.33 -4.34 9.66 -4 10 C-6 13 -6 13 -8.125 13.6875 C-8.74375 13.790625 -9.3625 13.89375 -10 14 C-10.33 13.34 -10.66 12.68 -11 12 C-10.34 11.67 -9.68 11.34 -9 11 C-9 10.01 -9 9.02 -9 8 C-8.01 8 -7.02 8 -6 8 C-6.33 7.01 -6.66 6.02 -7 5 C-5.35 3.68 -3.7 2.36 -2 1 C-1.34 1.33 -0.68 1.66 0 2 C0 1.34 0 0.68 0 0 Z " fill="#5C5C5D" transform="translate(256,242)"/>
<path d="M0 0 C0.99 0.33 1.98 0.66 3 1 C3.33 1.99 3.66 2.98 4 4 C4.66 4.33 5.32 4.66 6 5 C5.51159618 11.47135061 5.51159618 11.47135061 3.125 13.9375 C1 15 1 15 -2 15 C-2 14.34 -2 13.68 -2 13 C-0.35 12.34 1.3 11.68 3 11 C3 10.34 3 9.68 3 9 C2.34 8.67 1.68 8.34 1 8 C0.01665245 5.14829211 0 3.10359391 0 0 Z " fill="#757575" transform="translate(230,401)"/>
<path d="M0 0 C4.29 0 8.58 0 13 0 C12.67 0.99 12.34 1.98 12 3 C8.24092359 4.62323754 5.07913787 5.23994929 1 5 C1.66 4.67 2.32 4.34 3 4 C3 3.34 3 2.68 3 2 C2.01 2 1.02 2 0 2 C0 1.34 0 0.68 0 0 Z " fill="#4E4E4E" transform="translate(147,339)"/>
<path d="M0 0 C0.66 0.33 1.32 0.66 2 1 C1.03644647 11.55808656 1.03644647 11.55808656 0 16 C-0.66 16 -1.32 16 -2 16 C-3.52940159 5.35619163 -3.52940159 5.35619163 -1 1 C-0.67 0.67 -0.34 0.34 0 0 Z " fill="#767373" transform="translate(115,340)"/>
<path d="M0 0 C0.66 0.66 1.32 1.32 2 2 C5.08347826 2.16681109 5.08347826 2.16681109 8 2 C8 2.33 8 2.66 8 3 C2.87080814 5.10428384 -1.5610835 5.21755666 -7 5 C-6.67 4.01 -6.34 3.02 -6 2 C-2.9375 0.8125 -2.9375 0.8125 0 0 Z " fill="#636363" transform="translate(296,356)"/>
<path d="M0 0 C1.125 3.75 1.125 3.75 0 6 C4.62 6 9.24 6 14 6 C10.2632157 8.49118953 8.25548181 8.2065226 3.8125 8.125 C2.54019531 8.10695313 1.26789063 8.08890625 -0.04296875 8.0703125 C-1.50669922 8.03550781 -1.50669922 8.03550781 -3 8 C-3 6.02 -3 4.04 -3 2 C-2.34 2 -1.68 2 -1 2 C-0.67 1.34 -0.34 0.68 0 0 Z " fill="#707074" transform="translate(127,283)"/>
<path d="M0 0 C0.33 0 0.66 0 1 0 C1.1690907 2.06230268 1.33517133 4.1248523 1.5 6.1875 C1.5928125 7.33605469 1.685625 8.48460937 1.78125 9.66796875 C1.8534375 10.76753906 1.925625 11.86710937 2 13 C2.0721875 13.92425781 2.144375 14.84851563 2.21875 15.80078125 C2.1465625 16.52652344 2.074375 17.25226563 2 18 C1.01 18.66 0.02 19.32 -1 20 C-1.12910853 13.25766581 -0.797837 6.69613196 0 0 Z " fill="#4E4E4D" transform="translate(348,277)"/>
<path d="M0 0 C0.66 0.33 1.32 0.66 2 1 C2.625 4.0625 2.625 4.0625 3 7 C0.525 6.01 0.525 6.01 -2 5 C-2.33 5.99 -2.66 6.98 -3 8 C-3.66 6.02 -4.32 4.04 -5 2 C-2.625 0.9375 -2.625 0.9375 0 0 Z " fill="#545454" transform="translate(229,57)"/>
<path d="M0 0 C0.99 0.33 1.98 0.66 3 1 C3.625 3.875 3.625 3.875 4 7 C3.34 7.66 2.68 8.32 2 9 C1.67 8.01 1.34 7.02 1 6 C0.34 6.99 -0.32 7.98 -1 9 C-1.125 2.25 -1.125 2.25 0 0 Z " fill="#272324" transform="translate(330,329)"/>
<path d="M0 0 C0.99 0.33 1.98 0.66 3 1 C3.125 7.625 3.125 7.625 2 11 C1.34 11 0.68 11 0 11 C-0.19491452 9.54263913 -0.38069358 8.08405407 -0.5625 6.625 C-0.66691406 5.81289063 -0.77132812 5.00078125 -0.87890625 4.1640625 C-1 2 -1 2 0 0 Z " fill="#717171" transform="translate(131,355)"/>
<path d="M0 0 C0.66 0.33 1.32 0.66 2 1 C1.01 2.485 1.01 2.485 0 4 C-0.3626117 5.92744369 -0.3626117 5.92744369 -0.4140625 8.01171875 C-0.45273438 8.76904297 -0.49140625 9.52636719 -0.53125 10.30664062 C-0.5621875 11.09232422 -0.593125 11.87800781 -0.625 12.6875 C-0.66367188 13.48478516 -0.70234375 14.28207031 -0.7421875 15.10351562 C-0.83632494 17.06863475 -0.91924632 19.0342854 -1 21 C-1.33 21 -1.66 21 -2 21 C-2.24849534 18.06296475 -2.47448285 15.12713668 -2.6875 12.1875 C-2.76033203 11.35412109 -2.83316406 10.52074219 -2.90820312 9.66210938 C-2.99038086 8.45844727 -2.99038086 8.45844727 -3.07421875 7.23046875 C-3.13182373 6.49207764 -3.18942871 5.75368652 -3.2487793 4.99291992 C-2.92886446 2.43014778 -1.95066193 1.61180408 0 0 Z " fill="#6C6C6C" transform="translate(96,155)"/>
<path d="M0 0 C0 0.33 0 0.66 0 1 C-1.670625 1.433125 -1.670625 1.433125 -3.375 1.875 C-7.00291092 2.69241329 -7.00291092 2.69241329 -9 5 C-10.32 5 -11.64 5 -13 5 C-13 4.01 -13 3.02 -13 2 C-8.49646738 0.24252386 -4.82360189 -0.19294408 0 0 Z " fill="#616161" transform="translate(146,324)"/>
<path d="M0 0 C0.99 0.33 1.98 0.66 3 1 C2.625 3.4375 2.625 3.4375 2 6 C1.01 6.495 1.01 6.495 0 7 C-0.66 6.67 -1.32 6.34 -2 6 C-1.125 1.125 -1.125 1.125 0 0 Z " fill="#343434" transform="translate(324,346)"/>
<path d="M0 0 C0.66 0 1.32 0 2 0 C0.51014431 3.79235994 -1.58658047 5.80565887 -5 8 C-7.1640625 7.60546875 -7.1640625 7.60546875 -9 7 C-7.87926138 6.16094435 -6.75325453 5.32892169 -5.625 4.5 C-4.99851563 4.0359375 -4.37203125 3.571875 -3.7265625 3.09375 C-2 2 -2 2 0 2 C0 1.34 0 0.68 0 0 Z " fill="#60605F" transform="translate(249,506)"/>
<path d="M0 0 C0 0.66 0 1.32 0 2 C-9.41002278 4.11161731 -9.41002278 4.11161731 -14 5 C-9.67612562 1.34133706 -5.65076098 0 0 0 Z " fill="#626262" transform="translate(139,138)"/>
<path d="M0 0 C1.65 0.99 3.3 1.98 5 3 C4.01 3.495 4.01 3.495 3 4 C3.350625 4.763125 3.70125 5.52625 4.0625 6.3125 C5 9 5 9 4 12 C3.3291288 10.3767313 2.66342971 8.75132422 2 7.125 C1.62875 6.22007812 1.2575 5.31515625 0.875 4.3828125 C0 2 0 2 0 0 Z " fill="#8A8A8A" transform="translate(188,337)"/>
<path d="M0 0 C2.4294516 3.6441774 2.16179575 5.71241272 2 10 C1.01 10.495 1.01 10.495 0 11 C-0.66666667 7.66666667 -1.33333333 4.33333333 -2 1 C-1.34 0.67 -0.68 0.34 0 0 Z " fill="#6C6568" transform="translate(334,326)"/>
<path d="M0 0 C0.33 0.66 0.66 1.32 1 2 C4.3 1.34 7.6 0.68 11 0 C11 0.66 11 1.32 11 2 C5.555 3.485 5.555 3.485 0 5 C-0.33 4.01 -0.66 3.02 -1 2 C-0.67 1.34 -0.34 0.68 0 0 Z " fill="#676767" transform="translate(126,303)"/>
<path d="M0 0 C2.2328877 2.2328877 2.36778152 2.91909815 2.75 5.9375 C2.84796875 6.62714844 2.9459375 7.31679688 3.046875 8.02734375 C3 10 3 10 1 13 C0.67 8.71 0.34 4.42 0 0 Z " fill="#656564" transform="translate(98,287)"/>
<path d="M0 0 C0.99 1.32 1.98 2.64 3 4 C2.01 4.33 1.02 4.66 0 5 C0 3.35 0 1.7 0 0 Z M-5 4 C-2.525 4.495 -2.525 4.495 0 5 C-0.33 6.32 -0.66 7.64 -1 9 C-1.66 9 -2.32 9 -3 9 C-3.66 8.34 -4.32 7.68 -5 7 C-5 6.01 -5 5.02 -5 4 Z " fill="#7B7B7B" transform="translate(178,239)"/>
<path d="M0 0 C0.99 0.66 1.98 1.32 3 2 C-0.63 2.33 -4.26 2.66 -8 3 C-6.14481495 -0.71037009 -3.79223618 -1.26407873 0 0 Z " fill="#646464" transform="translate(171,337)"/>
<path d="M0 0 C1.32 0.33 2.64 0.66 4 1 C4.33 2.32 4.66 3.64 5 5 C4.01 5.495 4.01 5.495 3 6 C1.5 4.6875 1.5 4.6875 0 3 C0 2.01 0 1.02 0 0 Z " fill="#050505" transform="translate(227,62)"/>
<path d="M0 0 C0 1.32 0 2.64 0 4 C-1.8125 4.625 -1.8125 4.625 -4 5 C-4.99 4.34 -5.98 3.68 -7 3 C-5.40442685 -0.19114631 -3.35905282 0 0 0 Z " fill="#1F1F20" transform="translate(342,365)"/>
<path d="M0 0 C3.3 0 6.6 0 10 0 C9.01 0.495 9.01 0.495 8 1 C8 1.66 8 2.32 8 3 C5.36 2.67 2.72 2.34 0 2 C0 1.34 0 0.68 0 0 Z " fill="#CCCCCC" transform="translate(316,336)"/>
<path d="M0 0 C0 1.65 0 3.3 0 5 C-0.66 4.34 -1.32 3.68 -2 3 C-3.32 4.32 -4.64 5.64 -6 7 C-6.66 6.67 -7.32 6.34 -8 6 C-3.375 0 -3.375 0 0 0 Z " fill="#3A3A3A" transform="translate(267,317)"/>
<path d="M0 0 C-1.44253657 3.36591866 -3.33264727 5.51047079 -6 8 C-6.66 7.67 -7.32 7.34 -8 7 C-4.13157895 0 -4.13157895 0 0 0 Z " fill="#6B6B6B" transform="translate(188,283)"/>
<path d="M0 0 C0.99 0 1.98 0 3 0 C2.67 2.31 2.34 4.62 2 7 C1.34 6.01 0.68 5.02 0 4 C-0.99 4.495 -0.99 4.495 -2 5 C-1.34 3.35 -0.68 1.7 0 0 Z " fill="#838383" transform="translate(266,373)"/>
<path d="M0 0 C1.32 0 2.64 0 4 0 C4.33 3.3 4.66 6.6 5 10 C4.01 10.33 3.02 10.66 2 11 C2.03480469 10.06027344 2.03480469 10.06027344 2.0703125 9.1015625 C2.08835937 8.28429687 2.10640625 7.46703125 2.125 6.625 C2.14820313 5.81289062 2.17140625 5.00078125 2.1953125 4.1640625 C2.21370051 1.78657757 2.21370051 1.78657757 0 0 Z " fill="#747474" transform="translate(347,159)"/>
<path d="M0 0 C1.98 0 3.96 0 6 0 C6.66 1.32 7.32 2.64 8 4 C5.64828869 3.40138258 3.3140622 2.73075648 1 2 C0.67 1.34 0.34 0.68 0 0 Z " fill="#676767" transform="translate(143,380)"/>
<path d="M0 0 C5.94 0.99 5.94 0.99 12 2 C12 2.33 12 2.66 12 3 C10.37581255 3.08090971 8.75048255 3.13914995 7.125 3.1875 C5.76761719 3.23970703 5.76761719 3.23970703 4.3828125 3.29296875 C3.20332031 3.14794922 3.20332031 3.14794922 2 3 C1.34 2.01 0.68 1.02 0 0 Z " fill="#6E6E6E" transform="translate(291,130)"/>
<path d="M0 0 C2 3 2 3 2 6 C0.68 6.33 -0.64 6.66 -2 7 C-1.125 2.25 -1.125 2.25 0 0 Z " fill="#6A6A6B" transform="translate(339,359)"/>
<path d="M0 0 C0.66 0.33 1.32 0.66 2 1 C2 3.64 2 6.28 2 9 C1.34 8.34 0.68 7.68 0 7 C0 5.68 0 4.36 0 3 C-1.32 2.67 -2.64 2.34 -4 2 C-2.68 2 -1.36 2 0 2 C0 1.34 0 0.68 0 0 Z " fill="#B6A7B6" transform="translate(330,343)"/>
<path d="M0 0 C0.625 1.8125 0.625 1.8125 1 4 C0.01 5.485 0.01 5.485 -1 7 C-1.66 7 -2.32 7 -3 7 C-3 5.35 -3 3.7 -3 2 C-2.34 2 -1.68 2 -1 2 C-0.67 1.34 -0.34 0.68 0 0 Z " fill="#AFAFB0" transform="translate(127,283)"/>
<path d="M0 0 C2.475 0.99 2.475 0.99 5 2 C4.01 2.33 3.02 2.66 2 3 C2 4.65 2 6.3 2 8 C0.23537317 4.91190305 0 3.76687864 0 0 Z " fill="#A4A4A4" transform="translate(242,169)"/>
<path d="" fill="#FFFFFF" transform="translate(0,0)"/>
<path d="" fill="#000000" transform="translate(0,0)"/>
</svg>
